<svg width="60" height="80" viewBox="0 0 60 80" fill="none" xmlns="http://www.w3.org/2000/svg">
<g clip-path="url(#clip0_1_8286)">
<mask id="mask0_1_8286" style="mask-type:luminance" maskUnits="userSpaceOnUse" x="4" y="13" width="53" height="53">
<path d="M41.6289 13.8547L16.9331 14.7171C9.67815 14.9704 4.00225 21.0571 4.2556 28.312L5.11802 53.0085C5.37137 60.2634 11.458 65.9393 18.7129 65.686L43.4088 64.8236C50.6637 64.5702 56.3396 58.4836 56.0863 51.2287L55.2238 26.5321C54.9705 19.2772 48.8838 13.6013 41.6289 13.8547Z" fill="white"/>
</mask>
<g mask="url(#mask0_1_8286)">
<path d="M41.6289 13.8547L16.9331 14.7171C9.67815 14.9704 4.00225 21.0571 4.2556 28.312L5.11802 53.0085C5.37137 60.2634 11.458 65.9393 18.7129 65.686L43.4088 64.8236C50.6637 64.5702 56.3396 58.4836 56.0863 51.2287L55.2238 26.5321C54.9705 19.2772 48.8838 13.6013 41.6289 13.8547Z" fill="#92A3FF"/>
<mask id="mask1_1_8286" style="mask-type:luminance" maskUnits="userSpaceOnUse" x="22" y="33" width="16" height="13">
<path d="M37.394 33.6402L22.8672 34.1475L23.2782 45.9159L37.805 45.4086L37.394 33.6402Z" fill="white"/>
</mask>
<g mask="url(#mask1_1_8286)">
<path d="M25.6457 45.4048C25.7896 44.9543 25.7793 44.9108 25.4531 44.5575C25.6458 44.3508 25.8368 44.146 26.0683 43.8977C26.1839 43.8936 26.3658 43.8277 26.5286 43.971C27.1216 43.8784 27.7139 44.0664 28.3023 43.9933C28.4891 43.9692 28.6631 43.9807 28.8437 43.9814C29.4153 43.9772 29.9946 43.9955 30.5581 43.911C30.9262 43.856 31.2911 43.8117 31.6623 43.7935C31.6938 43.7924 31.7468 43.8028 31.755 43.7885C31.885 43.5437 32.1408 43.6365 32.3328 43.5597C32.5265 43.4827 32.7051 43.3748 32.9221 43.362C32.9746 43.3601 33.0235 43.3041 33.0751 43.2742C33.4188 43.0746 33.7815 42.9128 34.1346 42.7304C34.2604 42.6664 34.3259 42.5343 34.437 42.4533C34.5567 42.3649 34.6984 42.3039 34.8054 42.2037C34.9157 42.0999 34.9896 41.957 35.0927 41.8447C35.2278 41.6961 35.3778 41.5717 35.5015 41.399C35.6787 41.1508 35.8597 40.9095 35.994 40.6365C36.1119 40.3974 36.3697 40.2972 36.5192 40.0605C36.7393 40.0844 36.9663 40.108 37.225 40.1358C37.2148 40.3957 37.2538 40.6065 37.5369 40.6808C37.6608 40.7133 37.6677 40.8586 37.6309 40.9616C37.5098 41.3096 37.4398 41.6645 37.2107 41.9846C36.8529 42.4847 36.5223 43.0118 36.0667 43.4223C35.4342 43.9915 34.7469 44.496 33.9215 44.765C33.4467 45.1288 32.8157 45.086 32.3103 45.3772C32.2484 45.4127 32.1585 45.3983 32.0797 45.4028C31.9135 45.4139 31.752 45.409 31.5924 45.5075C31.4721 45.5801 31.2878 45.4725 31.1542 45.6158C31.1221 45.6502 30.9879 45.5742 30.9021 45.5772C30.825 45.5799 30.7496 45.6299 30.6711 45.6414C30.5089 45.6663 30.3549 45.5753 30.1733 45.6483C30.0212 45.7114 29.8287 45.6726 29.6536 45.6787C29.4627 45.6853 29.2721 45.7025 29.0807 45.6952C28.8384 45.6861 28.5824 45.788 28.3542 45.6294C28.3434 45.6227 28.3206 45.6235 28.3069 45.631C27.8952 45.8453 27.4688 45.5866 27.0491 45.6697C26.551 45.7677 26.1034 45.5536 25.6457 45.4048Z" fill="black"/>
<path d="M26.3099 35.7266C26.2949 35.9498 26.1918 36.113 26.1176 36.2962C26.0481 36.467 26.0291 36.6255 25.8585 36.7612C25.4968 37.0492 25.3225 37.1798 24.8667 37.336C24.4837 37.4668 24.4203 37.4568 24.1026 37.1978C24.0539 37.1592 24.0116 37.1045 23.9566 37.0837C23.5424 36.9245 23.5352 36.9195 23.2126 36.3696C22.9078 36.2259 23.1248 35.8641 22.9219 35.6783C23.0505 35.4423 22.9909 35.1428 23.1816 34.9292C23.3335 34.759 23.4763 34.5804 23.6373 34.4188C23.7203 34.3352 23.8228 34.258 23.932 34.2208C24.1018 34.1623 24.2833 34.1384 24.4592 34.1025C24.5063 34.0938 24.5636 34.0795 24.6011 34.0975C24.869 34.2372 25.1723 34.1863 25.452 34.2589C25.5068 34.2728 25.5591 34.3131 25.6043 34.3518C25.8336 34.542 25.948 34.7537 26.0605 35.1128C26.1274 35.3226 26.2256 35.5226 26.3081 35.7266H26.3099Z" fill="black"/>
<path d="M35.1838 34.4185C35.3482 34.6565 35.4679 34.9189 35.5569 35.2087C35.6976 35.672 35.6409 36.2088 35.4234 36.6092C35.2208 36.9846 34.8416 37.0224 34.5247 37.1877C34.4834 37.2102 34.1767 37.2139 34.1272 37.2016C33.9522 37.1639 33.7456 37.1729 33.6125 37.0776C33.5046 37.0007 33.3289 37.1418 33.2997 36.957C33.2728 36.7913 33.1031 36.8533 33.0247 36.7666C32.9555 36.6919 32.8437 36.6555 32.7796 36.577C32.7284 36.5157 32.7369 36.4084 32.6906 36.3381C32.4495 35.9625 32.5398 35.5841 32.6615 35.2028C32.8205 35.1359 32.6819 34.9355 32.7869 34.8775C33.0794 34.7165 33.2592 34.3928 33.5929 34.3075C33.9736 34.21 34.3549 34.081 34.736 34.35C34.8457 34.4268 35.0306 34.3993 35.1839 34.4203L35.1838 34.4185Z" fill="black"/>
</g>
<mask id="mask2_1_8286" style="mask-type:luminance" maskUnits="userSpaceOnUse" x="3" y="9" width="56" height="27">
<path d="M57.2674 9.80028L3.67188 11.6719L4.49759 35.3173L58.0931 33.4457L57.2674 9.80028Z" fill="white"/>
</mask>
<g mask="url(#mask2_1_8286)">
<path d="M52.4378 27.1548C52.6993 28.6187 56.5909 31.4231 58.504 32.6423L62.1788 24.8856L60.608 10.0345L26.0873 8.25879L-1.04437 12.1874C-1.47251 18.3402 -1.81168 30.8905 0.256748 31.8705C2.84228 33.0954 5.73112 30.4518 9.52211 26.0229C15.1953 30.2966 19.7481 27.5949 23.5849 24.4797C27.694 29.1587 32.7335 27.8429 37.2201 25.7572C40.6194 30.1979 48.6426 28.9533 52.4378 27.1548Z" fill="#FFBB00"/>
<path d="M24.1823 11.3304L24.5033 11.3192C24.5895 11.4973 24.6998 11.6866 24.7664 11.8876C24.7968 11.9788 24.6994 12.1138 24.7299 12.2068C24.8024 12.4332 24.912 12.6482 24.7448 12.8762C24.8315 13.0218 24.8506 13.1784 24.8564 13.3456C24.9034 14.7881 24.9503 16.2305 25.0092 17.6725C25.0205 17.9473 24.8846 18.1947 24.9318 18.4767C24.9766 18.7349 24.9604 19.0021 24.9662 19.2668C24.9697 19.4136 24.8617 19.537 24.8809 19.697C24.8955 19.8229 24.9637 19.9744 24.8333 20.0883C25.0027 20.2635 24.7839 20.4267 24.8192 20.6083C24.8546 20.7951 24.7778 20.9823 24.6609 21.1402C24.7534 21.4993 24.5205 21.7945 24.4708 22.1244C24.4019 22.5882 24.1729 22.9944 24.0454 23.4347C24.0074 23.5642 23.9881 23.6451 24.0838 23.7563C24.224 23.9223 24.3279 24.1203 24.4697 24.2863C24.7251 24.5867 25.0957 24.7771 25.2837 25.1431C25.6162 25.3143 25.8887 25.5697 26.1839 25.7918C26.5001 26.0303 26.8537 26.2213 27.2042 26.3714C27.6186 26.5501 28.0297 26.7784 28.4958 26.8288C28.6375 26.8443 28.7768 26.889 28.9158 26.9252C28.9708 26.9403 29.0218 26.9898 29.0728 26.988C29.5569 26.9711 30.0324 27.0964 30.5203 27.04C30.8726 26.9987 31.2297 26.9982 31.5853 27.0011C31.9033 27.002 32.1883 26.881 32.487 26.8158C32.8297 26.7423 33.1685 26.6536 33.4999 26.5515C33.7994 26.4573 34.1061 26.3765 34.4035 26.2721C34.711 26.164 34.9814 26.0178 35.2493 25.8495C35.7569 25.531 36.3091 25.2708 36.6951 24.7822C36.7375 24.7294 36.8255 24.7178 36.8766 24.6699C37.1925 24.3649 37.5243 24.0765 37.7364 23.6743C37.8305 23.495 38.0865 23.4228 38.0948 23.173C38.336 23.1151 38.3221 22.8626 38.4255 22.7069C38.5855 22.4672 38.6481 22.1659 38.8653 21.9566C38.8004 21.6564 39.0515 21.446 39.0842 21.1629C39.113 20.9175 39.2545 20.6818 39.2962 20.4172C39.331 20.1955 39.4633 19.991 39.4822 19.7528C39.4893 19.6619 39.6119 19.5705 39.6007 19.4923C39.5896 19.4192 39.5371 19.3749 39.557 19.2648C39.6211 18.9071 39.7452 18.5644 39.7799 18.1941C39.8286 17.6899 39.9082 17.1932 39.9107 16.6805C39.9116 16.5113 39.9202 16.3213 39.9564 16.1388C39.9985 15.9323 39.9532 15.7066 39.9456 15.4898L39.9245 14.8856C39.917 14.6688 39.8717 14.4431 39.9138 14.2366C39.9474 14.0782 39.6948 14.0049 39.8314 13.8737C39.9828 13.7283 39.78 13.6687 39.7831 13.5627C39.7868 13.4241 39.8136 13.2677 39.7635 13.1464C39.5779 12.7034 39.6978 12.2395 39.6103 11.7316C39.6813 11.671 39.7684 11.5842 39.868 11.5141C39.956 11.4512 40.0583 11.3622 40.1503 11.3658C40.2695 11.3702 40.3945 11.4427 40.504 11.5107C40.6552 11.6028 40.7887 11.7246 40.9399 11.8184C40.9973 11.854 41.0805 11.8511 41.1645 11.8687C41.3167 12.0873 41.2661 12.3915 41.4138 12.629C41.2032 12.8312 41.4644 13.0049 41.4491 13.2003C41.4311 13.4145 41.4591 13.634 41.4667 13.8508C41.4683 13.8969 41.4534 13.9555 41.4749 13.9889C41.5719 14.1342 41.6188 14.2608 41.499 14.4341C41.4585 14.4919 41.5812 14.6449 41.5868 14.7558C41.6115 15.1736 41.5974 15.5962 41.6475 16.0097C41.6664 16.1612 41.408 16.3086 41.6475 16.4472C41.4987 16.5686 41.5792 16.7316 41.5757 16.8753C41.5698 17.0464 41.6185 17.2241 41.5851 17.3859C41.4932 17.8249 41.5329 18.2781 41.4408 18.7103C41.3544 19.108 41.2782 19.5072 41.1986 19.9064C41.1479 20.1594 41.1419 20.4262 41.0502 20.6738C40.96 20.9162 40.8939 21.1663 40.8037 21.407C40.6527 21.8088 40.5276 22.2199 40.3458 22.6142C40.2699 22.7792 40.1893 22.9546 40.1083 23.1198C39.8734 23.6014 39.6039 24.0654 39.3326 24.526C39.278 24.6185 39.1041 24.6553 39.08 24.7451C39.0484 24.8624 38.9705 24.9215 38.9105 25.0039C38.7871 25.1723 38.655 25.3358 38.5368 25.5057C38.404 25.6966 38.4112 25.8536 38.6018 25.9068C38.8835 25.9841 38.9356 26.307 39.1935 26.3868C39.2133 26.6151 39.4281 26.6298 39.5656 26.719C39.7396 26.8309 40.0594 27.0761 40.1922 27.2269C40.2383 27.28 40.3093 27.3168 40.3749 27.3453C40.5183 27.4087 40.6744 27.4459 40.8114 27.5215C41.3314 27.8024 41.9001 27.9654 42.4509 28.1529C42.8794 28.2986 43.3309 28.4657 43.8079 28.4405C43.8674 28.4384 43.9467 28.422 43.9835 28.4532C44.2479 28.6678 44.5532 28.5956 44.8489 28.5887C45.2346 28.5787 45.6202 28.5669 46.0057 28.5483C46.2111 28.5377 46.412 28.5427 46.6179 28.45C46.7954 28.3703 47.0199 28.4189 47.2226 28.3298C47.4069 28.2499 47.6266 28.2593 47.8236 28.2011C47.9717 28.1584 48.1172 28.0849 48.2503 28.0017C48.5932 27.788 48.982 27.6702 49.3474 27.519C49.7967 27.3324 50.1404 26.994 50.576 26.8062C50.8559 26.4444 51.3636 26.3224 51.5517 25.8647C51.8308 25.7251 51.9229 25.4382 52.0847 25.2018C52.2546 24.9532 52.4577 24.7291 52.645 24.4918C52.6629 24.469 52.6738 24.4412 52.6848 24.4152C52.8363 23.9793 53.0447 23.5687 53.2498 23.1582C53.3244 23.0069 53.3092 22.8126 53.3751 22.6565C53.4349 22.516 53.4006 22.3634 53.4858 22.2203C53.571 22.0789 53.5521 21.8796 53.6146 21.7202C53.7316 21.4204 53.7322 21.094 53.8391 20.7946C53.6605 20.6504 53.8666 20.5117 53.8445 20.3655C53.8221 20.2124 53.8012 20.0508 53.8283 19.9012C53.9819 19.0892 53.8176 18.2798 53.8284 17.4693C53.8293 17.3497 53.8438 17.18 53.7772 17.1225C53.6386 17.0026 53.8075 16.9198 53.7683 16.8203C53.731 16.7259 53.7239 16.6202 53.705 16.5183C53.6839 16.4012 53.6338 16.2816 53.6503 16.1699C53.6804 15.9587 53.5464 15.7736 53.5859 15.5433C54.1079 15.4413 54.6675 15.5892 55.2067 15.3465C55.2579 15.4985 55.3288 15.6294 55.3438 15.7656C55.4192 16.4158 55.5116 17.0654 55.5142 17.7232C55.5165 18.3742 55.5631 19.0254 55.5723 19.6779C55.5755 19.8675 55.6466 20.0547 55.5193 20.2557C55.4243 20.4077 55.5456 20.6188 55.4508 20.8255C55.3686 21.0061 55.4012 21.2579 55.3733 21.481C55.3007 22.0322 55.1559 22.5619 55.0147 23.0949C54.923 23.4416 54.7918 23.776 54.6968 24.1228C54.6426 24.3229 54.3859 24.4242 54.4507 24.6731C54.2803 24.809 54.2453 25.0238 54.1409 25.2001C53.8678 25.6591 53.6052 26.1262 53.2097 26.4904C53.251 26.747 53.3818 26.9389 53.521 27.1255C53.7672 27.4553 54.0135 27.7867 54.2779 28.1022C54.585 28.4692 54.889 28.8465 55.2371 29.1727C55.6363 29.5467 55.98 29.991 56.4757 30.2557C56.6552 30.6732 57.1133 30.7854 57.393 31.1003C57.5682 31.2976 57.8195 31.4306 58.0255 31.5841L58.0894 33.4122C57.8801 33.5066 57.6988 33.4292 57.5453 33.3201C57.193 33.0692 56.8553 32.7973 56.5094 32.5377C56.3679 32.4298 56.2248 32.3237 56.0767 32.2246C55.9409 32.1337 55.8692 31.9807 55.6837 31.9273C55.536 31.8864 55.4875 31.6676 55.3164 31.5898C55.1281 31.5058 55.0512 31.2505 54.8137 31.2194C54.7341 31.0359 54.6267 30.8825 54.4128 30.8438C54.0595 30.3212 53.5214 29.9623 53.1745 29.4276C53.0415 29.222 52.7887 29.0959 52.735 28.8243C52.4794 28.8093 52.4299 28.5598 52.3123 28.4084C52.2215 28.2902 52.1901 28.1221 52.0702 27.9999C51.9433 27.8727 51.8877 27.8405 51.7708 27.9505C51.4399 28.2645 51.0522 28.5088 50.6654 28.7325C50.297 28.9453 49.92 29.1567 49.5189 29.3126C49.3846 29.3634 49.2387 29.4693 49.1171 29.4462C48.8706 29.4002 48.8246 29.6906 48.6017 29.6864C48.4212 29.6824 48.2414 29.7913 48.057 29.8216C47.6039 29.8973 47.1647 30.0339 46.7192 30.1332C46.1421 30.2628 45.5643 30.2778 44.9986 30.248C44.3324 30.2132 43.6445 30.2372 43.0058 29.969C42.6488 29.9746 42.344 29.7682 42.0007 29.7255C41.8999 29.7136 41.8325 29.6818 41.7639 29.6176C41.7322 29.5879 41.6936 29.5517 41.6543 29.5479C41.4955 29.5295 41.3282 29.6089 41.1863 29.4429C41.0835 29.3235 40.8502 29.4119 40.7688 29.2234C40.3206 29.198 39.9795 28.9279 39.6542 28.671C39.5003 28.5499 39.2837 28.5814 39.1624 28.3703C39.0808 28.2262 38.8476 28.1728 38.6974 28.0601C38.6101 27.9931 38.551 27.8123 38.4813 27.813C38.2943 27.8161 38.3476 27.6366 38.252 27.5767C38.1494 27.5119 38.066 27.414 37.9779 27.3265C37.8933 27.2406 38.0059 27.0572 37.8344 27.0153C37.7126 26.9854 37.6635 26.8948 37.5957 26.8032C37.5332 26.7199 37.3995 26.6887 37.273 26.6231C37.0498 26.7573 36.796 26.8909 36.5602 27.0564C36.0008 27.4485 35.3769 27.7488 34.7419 27.9265C34.6071 27.9637 34.4939 28.0822 34.3591 28.1176C33.9529 28.2241 33.5641 28.3898 33.1428 28.4506C32.9397 28.4799 32.7487 28.5618 32.5362 28.5658C32.3493 28.5706 32.1632 28.6472 31.9751 28.6674C31.7599 28.6903 31.5349 28.7255 31.3293 28.6814C31.1717 28.6476 31.1073 28.8994 30.9201 28.7504C30.8257 28.6751 30.6284 28.7247 30.4787 28.7248C30.324 28.7251 30.1696 28.7356 30.015 28.741C29.8604 28.7464 29.7033 28.7758 29.5528 28.7537C28.9955 28.6724 28.4304 28.6101 27.898 28.4133C27.4018 28.229 26.8837 28.1018 26.4357 27.7894C26.298 27.6933 26.0664 27.7356 25.92 27.5835C25.8511 27.5124 25.751 27.4698 25.6772 27.4023C25.3452 27.0994 24.8897 26.9615 24.6048 26.5955C24.2536 26.4745 24.097 26.0817 23.741 25.9677C23.6079 25.6152 23.1927 25.5101 23.0666 25.1146C22.9396 25.2762 22.8506 25.4075 22.744 25.5189C22.6865 25.579 22.5973 25.606 22.5241 25.653C22.4809 25.6802 22.4172 25.7063 22.4049 25.7461C22.327 25.9983 22.1538 26.153 21.9449 26.3073C21.7426 26.4562 21.5921 26.6751 21.3724 26.8126C21.0228 27.0282 20.7213 27.307 20.4055 27.5676C20.2716 27.6782 20.0644 27.588 19.9563 27.7559C19.8401 27.9359 19.6162 27.9044 19.4544 27.9955C19.4294 28.0084 19.3778 27.9931 19.3681 28.0088C19.1893 28.2936 18.8626 28.2879 18.5973 28.3861C18.4411 28.4445 18.2804 28.5663 18.0864 28.5133C18.052 28.5042 18.0019 28.5299 17.9653 28.5517C17.6434 28.7355 17.0729 28.9076 16.7727 28.9317C16.5217 28.9524 16.2607 28.8812 16.0231 29.0416C15.965 29.0813 15.8383 29.0583 15.7639 29.0216C15.6426 28.9592 15.5629 28.9654 15.4413 29.038C15.2647 29.1433 15.0908 29.0827 14.9672 28.9025C14.8708 28.9674 14.7797 29.0372 14.6829 29.0901C14.6462 29.1102 14.593 29.0967 14.5454 29.0984C14.4011 29.1068 14.3299 28.8188 14.2152 28.9441C14.0431 29.1313 13.9499 28.897 13.8115 28.9257C13.7 28.9484 13.5599 28.8815 13.4441 28.8275C13.247 28.7353 13.0234 28.7636 12.8268 28.6354C12.7171 28.5641 12.5805 28.5466 12.5077 28.4107C12.4859 28.3705 12.4065 28.3374 12.3556 28.3409C12.013 28.3682 11.9964 28.3329 11.7012 28.2065C11.5458 28.1401 11.4484 27.9316 11.2261 27.9941C11.1907 28.0038 11.1174 27.9022 11.0729 27.8456C11 27.7542 10.9336 27.6557 10.8782 27.5773C10.7786 27.5995 10.6999 27.6348 10.6298 27.6252C10.582 27.6184 10.5166 27.5489 10.5081 27.4996C10.4396 27.0987 10.0587 27.0983 9.8047 26.9363C9.78384 26.9234 9.74349 26.9367 9.70442 26.9381C9.59975 27.1554 9.61844 27.4469 9.31285 27.5602C9.22887 27.5904 9.21627 27.8626 9.14686 27.8719C8.94725 27.9028 9.05134 28.1076 8.91625 28.1841C8.81278 28.2407 8.80545 28.4204 8.63603 28.4878C8.5404 28.5253 8.53667 28.7596 8.34999 28.7713C8.24253 29.0057 8.02083 29.1348 7.85535 29.3149C7.68986 29.495 7.42063 29.5779 7.34675 29.8488C7.33927 29.8781 7.27573 29.9093 7.23836 29.9106C7.07699 29.9163 7.02907 30.0051 6.96776 30.1491C6.89225 30.3243 6.70521 30.4231 6.52408 30.4961C6.47038 30.5168 6.36822 30.5135 6.36231 30.5394C6.30072 30.7722 6.04004 30.7591 5.92292 30.9119C5.79123 31.0857 5.56959 31.119 5.42142 31.2592C5.24848 31.4208 4.99609 31.4501 4.84023 31.6623C4.77046 31.7588 4.54352 31.7376 4.36799 31.7762L4.30469 29.9635C6.07926 28.8625 7.54731 27.4099 8.69315 25.5943C8.47289 25.2773 8.30755 24.9259 8.10204 24.593C7.93986 24.332 7.80542 24.0377 7.6529 23.761C7.57115 23.6118 7.54287 23.435 7.48109 23.2731C7.40992 23.0859 7.40399 22.8674 7.2222 22.7267C7.18721 22.6989 7.19958 22.6147 7.17729 22.5608C6.98164 22.0721 6.97815 21.5338 6.77565 21.0436C6.6771 20.8026 6.65707 20.5214 6.64104 20.257C6.62578 20.0149 6.48759 19.8078 6.51104 19.5541C6.53309 19.3089 6.50734 19.0586 6.48681 18.8115C6.48055 18.7297 6.42006 18.6532 6.39007 18.5739C6.36385 18.5048 6.53586 18.4629 6.40295 18.3582C6.2875 18.2665 6.60634 18.0947 6.37279 17.9815C6.58253 17.8512 6.22935 17.6242 6.61293 17.4553C6.92549 17.4444 7.39943 17.4279 7.87336 17.4113C8.02285 17.4061 8.11264 17.4935 8.11031 17.6218C8.10388 17.9245 8.14494 18.2238 8.10981 18.5327C8.07351 18.8569 8.16199 19.1991 8.22112 19.5285C8.25685 19.7238 8.28051 19.7196 8.18512 19.9587C8.38586 20.0577 8.4145 20.2447 8.40139 20.4536C8.39379 20.5769 8.3965 20.7033 8.41438 20.8257C8.42967 20.9226 8.46055 21.0275 8.51777 21.1075C8.62154 21.2543 8.6204 21.4167 8.62273 21.5806C8.62422 21.7207 8.6503 21.8343 8.76137 21.9466C8.8531 22.0409 8.88933 22.202 8.92644 22.3391C9.01257 22.6625 9.06502 22.9956 9.30698 23.2521C9.30719 23.599 9.65053 23.7391 9.76434 24.0273C9.8744 24.3055 10.045 24.5644 10.2253 24.8076C10.4377 25.0959 10.6867 25.3589 10.9504 25.6043C11.0559 25.7032 11.2149 25.7745 11.191 25.9668C11.1884 25.9891 11.2225 26.0409 11.2292 26.0389C11.5087 25.9574 11.5741 26.3208 11.8138 26.3176C11.8732 26.5582 12.1388 26.5164 12.2747 26.6569C12.4299 26.8173 12.6932 26.8081 12.8309 27.0015C13.1166 26.9984 13.2599 27.4018 13.5923 27.2757C13.6023 27.2719 13.6464 27.3148 13.6454 27.3354C13.6407 27.4945 13.7746 27.4813 13.8328 27.4433C14.0025 27.3332 14.1196 27.4248 14.2401 27.5146C14.3082 27.5652 14.3415 27.6426 14.4483 27.5363C14.4993 27.4867 14.6471 27.5294 14.7495 27.5412C14.8708 27.5558 14.9416 27.731 15.1209 27.6068C15.2056 27.5492 15.3948 27.6571 15.5397 27.6674C15.6931 27.6774 15.9174 27.7209 15.9878 27.6415C16.122 27.4899 16.2432 27.7471 16.3739 27.5921C16.4473 27.5041 16.6722 27.5629 16.7887 27.4905C16.9052 27.4181 17.0186 27.6465 17.1275 27.4513C17.1659 27.3833 17.3431 27.3908 17.4562 27.3681C17.5879 27.3412 17.7198 27.3196 17.8702 27.2904C17.9255 27.1705 17.9677 27.0152 18.1837 27.0128C18.3401 27.0125 18.5016 26.9607 18.6493 26.9043C18.7248 26.8743 18.7706 26.7736 18.8401 26.7199C18.908 26.668 19.0044 26.6526 19.0636 26.5942C19.2017 26.4578 19.3302 26.3371 19.5321 26.2736C19.7676 26.2005 19.9677 26.0362 20.136 25.839C20.2487 25.7069 20.3477 25.5718 20.5586 25.5217C20.7458 25.4776 20.8692 25.2597 20.9489 25.0603C21.1745 25.0918 21.2814 24.8881 21.3349 24.7649C21.4652 24.4544 21.6987 24.2241 21.8906 23.9713C22.0385 23.7765 22.0556 23.5349 22.2363 23.3526C22.3892 23.2003 22.4331 22.9475 22.5052 22.7245C22.6066 22.4134 22.7957 22.1299 22.8212 21.7889C22.9966 21.6495 22.8663 21.425 22.9723 21.2453C23.0511 21.1144 23.0435 20.8993 23.0804 20.7357C23.1394 20.4773 23.1205 20.2301 23.1321 19.9768C23.1366 19.8639 23.1957 19.7524 23.2053 19.6393C23.2163 19.5159 23.1474 19.344 23.2081 19.2786C23.3031 19.1745 23.1465 19.0757 23.2491 18.9935C23.2822 18.9667 23.2724 18.8816 23.272 18.8218C23.2787 18.0884 23.2957 17.3564 23.2854 16.6236C23.2747 15.8789 23.2436 15.1348 23.2074 14.391C23.1964 14.1709 23.2697 13.9325 23.1011 13.7316C23.0727 13.6985 23.083 13.6024 23.1121 13.5587C23.2217 13.3856 23.1905 13.2227 23.113 13.0511C23.0835 12.9854 23.0707 12.909 23.0681 12.8356C23.0528 12.4943 23.0443 12.1528 23.0306 11.8115C23.0237 11.6118 23.0779 11.4595 23.2646 11.3522C23.3663 11.2939 23.4336 11.1737 23.5207 11.0869C23.6473 10.9629 23.7388 10.9545 23.8685 11.0628C23.9631 11.1432 24.0495 11.2308 24.1744 11.3478L24.1823 11.3304Z" fill="black"/>
</g>
<mask id="mask3_1_8286" style="mask-type:luminance" maskUnits="userSpaceOnUse" x="2" y="46" width="57" height="24">
<path d="M58.0705 46.9502L2.86719 48.8779L3.59149 69.6193L58.7948 67.6915L58.0705 46.9502Z" fill="white"/>
</mask>
<g mask="url(#mask3_1_8286)">
<path d="M31.3335 65.5978C35.3231 51.2891 51.959 46.9319 59.7782 46.542C59.974 52.1468 60.1288 63.6102 59.1823 64.6253C57.9991 65.8942 51.364 71.7376 50.144 71.9555C49.1681 72.1299 42.5183 72.8648 39.3154 73.2105L5.1713 69.668C3.8107 65.8575 1.31224 56.5803 2.20321 49.9554C23.9094 48.8467 21.2416 52.7979 31.3335 65.5978Z" fill="#318854"/>
<path d="M57.9534 47.1951C57.9356 47.7411 58.0769 48.2728 58.1375 48.8512C57.8149 48.8554 57.5205 48.9622 57.2158 48.822C57.1374 48.7861 57.0296 48.8145 56.9367 48.8159C56.8246 48.8181 56.7064 48.7994 56.6041 48.8328C56.4845 48.8721 56.4074 48.7239 56.2802 48.7968C56.1925 48.8454 56.07 48.8532 55.9662 48.8446C55.7711 48.8303 55.5729 48.9302 55.3732 48.7846C55.2886 48.7227 55.1341 48.9683 54.9898 48.805C54.834 48.9613 54.6309 48.8719 54.4513 48.901C54.3136 48.9233 54.1173 48.8758 54.0445 48.952C53.9142 49.0881 53.8133 48.9092 53.7399 48.9679C53.6085 49.0707 53.4681 49.0177 53.3337 49.0347C53.208 49.0514 53.0537 49.0024 52.9575 49.0601C52.7995 49.1551 52.6797 49.1382 52.51 49.1003C52.3969 49.0744 52.2473 49.2094 52.1144 49.2719C51.9917 49.1237 51.8668 49.2613 51.768 49.2946C51.6466 49.3339 51.5218 49.3242 51.4007 49.3723C51.2744 49.4223 51.0931 49.3514 50.9848 49.4149C50.6945 49.5881 50.3194 49.4433 50.0465 49.7124C49.938 49.8197 49.6785 49.6692 49.5188 49.8168C49.2043 49.7488 49.0003 50.033 48.7086 50.066C48.4308 50.0968 48.161 50.2044 47.8864 50.2754C47.8569 50.2834 47.8037 50.2677 47.7955 50.2838C47.6368 50.5612 47.2784 50.4404 47.0856 50.6453C46.752 50.5833 46.5569 50.9724 46.2183 50.9158C46.1795 50.9102 46.1298 50.9943 46.0802 51.0294C46.0083 51.081 45.9369 51.1431 45.8536 51.1706C45.5018 51.2881 45.1764 51.4608 44.8414 51.611C44.6429 51.7004 44.4801 51.8095 44.3053 51.9261C44.0345 52.1057 43.6745 52.141 43.4744 52.4391C43.218 52.427 43.0827 52.6702 42.8831 52.7298C42.6627 52.7954 42.5371 52.9664 42.349 53.0536C41.8745 53.2736 41.5077 53.667 41.0275 53.8766C40.9129 54.1595 40.59 54.204 40.4047 54.4227C40.2379 54.6179 39.957 54.7084 39.7435 54.8702C39.5606 55.0081 39.4144 55.1886 39.2282 55.3301C38.9189 55.5636 38.661 55.8602 38.3756 56.1262C38.2652 56.2283 38.0695 56.2982 38.0385 56.4151C37.9919 56.5868 37.8378 56.5939 37.7745 56.6891C37.5096 57.0859 37.0433 57.2916 36.8199 57.7255C36.764 57.8327 36.5977 57.8893 36.5594 57.9976C36.5113 58.1273 36.4612 58.201 36.3277 58.2425C36.267 58.2621 36.2245 58.3513 36.181 58.4124C36.1376 58.4736 36.1121 58.5481 36.0632 58.6024C35.9164 58.7689 35.7828 58.9612 35.603 59.085C35.4061 59.2199 35.4666 59.4475 35.3355 59.6099C35.2161 59.7561 35.0592 59.8826 34.9871 60.078C34.9215 60.2574 34.7955 60.4161 34.6853 60.5761C34.5635 60.7522 34.4201 60.915 34.3018 61.0927C34.1952 61.2543 34.1048 61.4258 34.0143 61.5973C33.9452 61.7277 33.9067 61.8817 33.8141 61.9901C33.7063 62.1184 33.7815 62.363 33.5479 62.4027C33.5851 62.6154 33.4291 62.7664 33.3706 62.9491C33.3168 63.1158 33.2042 63.2565 33.1899 63.4499C33.1817 63.5677 33.0613 63.6841 32.9791 63.7905C32.8785 63.922 32.6979 64.0247 32.8419 64.2301C32.7094 64.3523 32.6491 64.4859 32.6577 64.682C32.6623 64.8134 32.5478 64.9489 32.4948 65.0875C32.4513 65.1978 32.4237 65.311 32.3837 65.4228C32.3469 65.5241 32.2528 65.6414 32.2784 65.7211C32.318 65.8495 32.212 65.9269 32.2301 66.0455C32.2479 66.1536 32.1838 66.2751 32.1562 66.39C32.1287 66.505 32.1047 66.6216 32.0718 66.7349C32.0515 66.8058 32.0335 66.8941 31.9823 66.9345C31.8714 67.0225 31.9554 67.0669 31.9828 67.1484C32.0124 67.2421 31.9743 67.3574 31.9587 67.4631C31.9502 67.5213 31.9085 67.5806 31.9174 67.6347C31.9738 67.9957 31.8112 68.2609 31.558 68.4907C31.5103 68.5327 31.47 68.5833 31.4091 68.6485C31.3645 68.6255 31.3143 68.594 31.2611 68.5765C30.7146 68.3939 30.5388 68.3317 30.209 67.8767C30.1519 67.7981 30.1336 67.7759 30.1771 67.6657C30.2221 67.5483 30.2195 67.3748 30.1195 67.2205C29.9989 67.0318 30.1367 66.7587 29.9634 66.5666C29.9404 66.1097 29.6968 65.7131 29.6026 65.2762C29.4223 65.1334 29.6389 64.8593 29.4204 64.7284C29.4181 64.4602 29.2238 64.2688 29.1453 64.0296C29.0885 63.8597 28.9799 63.7127 28.9905 63.5159C28.9948 63.4368 28.939 63.3458 28.8909 63.2738C28.6613 62.9259 28.5215 62.5397 28.3643 62.1559C28.209 61.7755 27.9827 61.4221 27.7584 61.0757C27.6751 60.9489 27.5406 60.8641 27.5449 60.6851C27.5467 60.636 27.4955 60.5764 27.4554 60.5339C27.2335 60.3049 27.0425 60.0573 26.9423 59.7487C26.7287 59.7105 26.7233 59.5038 26.6273 59.3669C26.5331 59.2299 26.4317 59.0896 26.3087 58.9799C26.1223 58.8163 26.0662 58.5657 25.8608 58.4081C25.6735 58.2656 25.58 57.9988 25.3911 57.8616C25.2435 57.7545 25.1658 57.5888 25.019 57.501C24.8505 57.3982 24.8647 57.1504 24.6136 57.0925C24.4704 57.059 24.3731 56.8326 24.2577 56.6911C24.1899 56.6093 24.1273 56.5238 24.0648 56.4401C23.9986 56.3529 23.9409 56.2568 23.805 56.2825C23.7754 56.2888 23.7192 56.2855 23.7171 56.2768C23.6555 55.9686 23.2985 55.9898 23.1574 55.765C23.0386 55.5763 22.8231 55.4821 22.6701 55.3208C22.5318 55.1749 22.312 55.1089 22.1395 54.9904C21.9634 54.8685 21.8091 54.7178 21.6346 54.5907C21.424 54.4367 21.1923 54.3308 20.977 54.191C20.9411 54.1677 20.8716 54.1842 20.8513 54.1568C20.706 53.962 20.5494 53.7973 20.2782 53.8138C20.2061 53.5568 19.8693 53.6562 19.7634 53.4337C19.7463 53.3957 19.6584 53.39 19.6017 53.3727C19.5041 53.3411 19.3949 53.3273 19.3089 53.276C19.1263 53.1684 18.9694 52.9932 18.7763 52.9368C18.5779 52.8806 18.4206 52.7949 18.2553 52.6815C18.1528 52.6096 18.002 52.6096 17.8744 52.572C17.8036 52.5517 17.7309 52.5297 17.67 52.4915C17.4063 52.3218 17.0759 52.3018 16.8265 52.0913C16.7362 52.0155 16.5702 52.0336 16.4426 51.9942C16.0899 51.8873 15.7436 51.7626 15.3894 51.6627C14.9767 51.5473 14.5504 51.4903 14.1659 51.2758C14.0407 51.2065 13.8547 51.355 13.72 51.2124C13.3182 51.258 12.9664 50.9757 12.5599 51.0355C12.5076 51.0426 12.4483 51.0043 12.3899 50.9888C12.1564 50.9303 11.9302 50.8313 11.6775 50.8752C11.606 50.8882 11.5198 50.8789 11.4539 50.8497C11.3149 50.7879 11.1997 50.7516 11.0256 50.7892C10.8342 50.831 10.5974 50.7796 10.4121 50.6966C10.2821 50.6381 10.1707 50.6612 10.0528 50.6496C9.91902 50.6367 9.76565 50.714 9.6588 50.5669C9.57001 50.6857 9.47199 50.6909 9.33166 50.6397C9.20728 50.5932 9.06191 50.5982 8.92499 50.5943C8.79858 50.5899 8.66149 50.6315 8.5463 50.597C8.44524 50.5654 8.38243 50.5746 8.28533 50.6061C8.17258 50.6416 8.01332 50.6506 7.92191 50.5942C7.81075 50.5244 7.71141 50.5419 7.60807 50.5456C6.87583 50.5676 6.14383 50.5967 5.41158 50.6187C5.27146 50.6236 5.1366 50.6283 5.02437 50.7287C4.88685 50.6073 4.7626 50.7151 4.62472 50.7339C4.07146 50.8093 3.51528 50.8516 2.94202 50.9067L2.88281 49.2112C2.9659 49.1802 3.0604 49.1243 3.15993 49.1121C3.25076 49.1019 3.34917 49.1581 3.43825 49.148C3.53784 49.1375 3.63305 49.0517 3.72957 49.0536C4.37359 49.0662 4.99607 48.8638 5.64365 48.878C6.29474 48.8921 6.94839 48.829 7.60055 48.8237C7.85827 48.8217 8.13127 48.7052 8.37608 48.8861C8.55061 48.7116 8.73851 48.8699 8.91741 48.8707C9.44709 48.8732 9.98268 48.844 10.5027 48.9206C11.1249 49.0111 11.7691 48.9798 12.3683 49.2149C12.7701 49.1711 13.1409 49.344 13.5318 49.39C14.0284 49.4498 14.5145 49.6082 15.0028 49.7314C15.5176 49.8607 16.0325 49.9918 16.5174 50.2186C16.7815 50.0989 16.923 50.3851 17.1554 50.4103C17.3666 50.4328 17.5642 50.5679 17.7704 50.6466C18.0174 50.7415 18.2628 50.889 18.5159 50.9047C18.7145 50.917 18.7719 51.1553 18.9681 51.0993C19.2328 51.297 19.5975 51.2948 19.8379 51.5512C19.9691 51.6922 20.1824 51.7251 20.3535 51.8033C20.9774 52.0919 21.57 52.4394 22.1372 52.816C22.6183 53.1341 23.1616 53.3764 23.5543 53.8239C24.365 54.341 25.0445 55.017 25.7339 55.6768C26.1458 56.0728 26.5493 56.4813 26.8968 56.9392C26.9244 56.9768 26.9691 57.0015 27.0001 57.0373C27.1389 57.1955 27.3213 57.2944 27.3775 57.5484C27.4172 57.7312 27.6485 57.8757 27.794 58.0249C28.0959 58.3353 28.2811 58.7181 28.5401 59.0528C28.9403 59.5667 29.2378 60.1525 29.5541 60.7219C29.7319 61.0436 29.9492 61.3412 30.0808 61.6943C30.224 62.0787 30.4486 62.4338 30.5814 62.822C30.6869 63.1305 30.8926 63.3986 30.9237 63.736C30.9271 63.7832 31.0109 63.8241 31.0743 63.8815C31.1753 63.6605 31.2802 63.4482 31.369 63.2294C31.4239 63.0942 31.4096 62.886 31.5037 62.8196C31.6628 62.7053 31.5165 62.5333 31.6528 62.4198C31.755 62.3338 31.7876 62.1626 31.8496 62.0289C32.1205 61.4495 32.4521 60.9031 32.7623 60.3433C33.1368 59.6691 33.5671 59.0351 34.0134 58.4075C34.3276 57.9651 34.651 57.5347 35.0212 57.136C35.2425 56.8967 35.4186 56.617 35.6437 56.3829C36.1631 55.8387 36.6714 55.2791 37.2363 54.7859C37.7639 54.3273 38.2181 53.7748 38.8481 53.4354C39.2013 53.0039 39.7161 52.7825 40.141 52.4433C41.122 51.662 42.2143 51.0539 43.303 50.4424C43.6108 50.2686 43.9147 50.0826 44.2396 49.945C44.4418 49.859 44.6048 49.6552 44.8627 49.7111C44.8928 49.717 44.9366 49.6664 44.9725 49.6406C45.426 49.3179 45.9729 49.2128 46.4721 48.9937C46.8779 48.8147 47.2991 48.6737 47.7261 48.5484C48.0021 48.4668 48.2882 48.3744 48.5612 48.2562C48.8186 48.1455 49.1327 48.1503 49.3717 48.0157C49.6263 47.8735 49.9023 47.9445 50.1614 47.8303C50.3807 47.7332 50.6458 47.6415 50.9224 47.6792C51.0282 47.693 51.1462 47.6082 51.261 47.5814C51.8142 47.4551 52.3764 47.3846 52.9385 47.3106C53.4185 47.2465 53.8973 47.1965 54.3776 47.192C54.5038 47.1911 54.5817 46.9587 54.7475 47.1387C54.784 47.1778 54.9588 47.063 55.0661 47.0715C55.2033 47.0825 55.311 47.1541 55.4746 47.0678C55.5899 47.0059 55.7901 47.1146 55.9553 47.1264C56.1135 47.1366 56.2742 47.117 56.4319 47.1132C56.9294 47.0994 57.4287 47.0346 57.9569 47.1968L57.9534 47.1951Z" fill="black"/>
</g>
</g>
<path d="M41.5984 12.9793L16.9026 13.8417C9.16399 14.112 3.1097 20.6044 3.37993 28.343L4.24236 53.0396C4.51259 60.7782 11.005 66.8325 18.7436 66.5622L43.4395 65.6998C51.1781 65.4296 57.2324 58.9371 56.9621 51.1985L56.0997 26.502C55.8295 18.7634 49.337 12.7091 41.5984 12.9793Z" stroke="black" stroke-width="1.75257"/>
</g>
<defs>
<clipPath id="clip0_1_8286">
<rect width="56" height="56" fill="white" transform="translate(2.3125 11.9922)"/>
</clipPath>
</defs>
</svg>
