<svg width="58" height="80" viewBox="0 0 58 80" fill="none" xmlns="http://www.w3.org/2000/svg">
<g clip-path="url(#clip0_1_8260)">
<mask id="mask0_1_8260" style="mask-type:luminance" maskUnits="userSpaceOnUse" x="2" y="13" width="54" height="54">
<path d="M42.8372 15.1701L18.0206 13.4348C10.7303 12.925 4.40705 18.4217 3.89726 25.712L2.16191 50.5286C1.65213 57.8189 7.14882 64.1421 14.4391 64.6519L39.2557 66.3873C46.546 66.897 52.8693 61.4003 53.379 54.11L55.1144 29.2934C55.6242 22.0031 50.1275 15.6799 42.8372 15.1701Z" fill="white"/>
</mask>
<g mask="url(#mask0_1_8260)">
<path d="M42.845 15.1701L18.0284 13.4348C10.7381 12.925 4.41486 18.4217 3.90507 25.712L2.16973 50.5286C1.65994 57.8189 7.15664 64.1421 14.4469 64.6519L39.2635 66.3873C46.5538 66.897 52.8771 61.4003 53.3869 54.11L55.1222 29.2934C55.632 22.0031 50.1353 15.6799 42.845 15.1701Z" fill="#FFBB00"/>
<path d="M9.20678 23.2503C6.4173 20.6499 2.16703 20.223 0.390576 20.3346L-0.9375 6.44629L36.7889 8.20005L61.0196 13.2549C61.1525 18.0984 60.9256 27.7512 58.9544 27.6134C56.4903 27.4411 50.7277 23.8545 47.8501 24.5377C41.9965 27.3119 36.0406 29.0178 32.2018 25.7427C28.3629 22.4675 22.7431 21.8976 19.063 23.9395C15.3829 25.9814 12.6936 26.5009 9.20678 23.2503Z" fill="#F7841F"/>
<path d="M0.0546875 22.5558C0.110626 22.1352 0.134785 21.815 0.212238 21.4915C0.286947 21.1819 0.353716 20.8593 0.412425 20.5256C0.727484 20.4716 1.02267 20.3225 1.3426 20.2493C1.46663 20.2209 1.58152 20.2218 1.70117 20.2054C1.81893 20.1907 1.93731 20.1671 2.05102 20.1344C2.32544 20.0545 2.60508 20.1024 2.88047 20.0845C3.05996 20.0723 3.27487 19.9582 3.41504 20.0529C3.58567 20.1674 3.73448 19.9868 3.9065 20.1067C4.04303 20.2029 4.26648 20.169 4.44944 20.2084C5.11173 20.3484 5.74638 20.5803 6.37665 20.8242C6.518 21.0286 6.72973 21.0611 6.95461 21.0574C7.06894 21.2688 7.32472 21.2531 7.48532 21.3846C7.74458 21.5972 8.03366 21.7377 8.35398 21.8361C8.46138 21.8684 8.5395 21.9906 8.64317 22.0509C8.8607 22.1776 9.11147 22.2588 9.30215 22.4154C9.50453 22.5816 9.709 22.7179 9.95175 22.8127C10.0877 22.8665 10.2164 22.948 10.3398 23.0309C10.6254 23.2207 10.9318 23.3659 11.2438 23.508C11.5369 23.6417 11.7961 23.8543 12.1068 23.9645C12.2897 24.0303 12.4705 24.0996 12.6579 24.1516C12.8626 24.2084 13.0923 24.212 13.2767 24.3063C13.3929 24.3657 13.498 24.4049 13.6212 24.4135C14.0207 24.4414 14.4203 24.4694 14.8198 24.4973C15.041 24.343 15.3129 24.4009 15.5572 24.3225C15.9533 24.1963 16.355 24.0918 16.7334 23.9166C16.9912 23.7967 17.2881 23.7485 17.4945 23.5294C17.8646 23.5217 18.1246 23.1932 18.5133 23.1992C18.6706 23.2013 18.8335 23.0465 18.987 22.9511C19.157 22.8463 19.316 22.723 19.4845 22.6145C19.5197 22.5922 19.5891 22.6112 19.6122 22.5845C19.7429 22.4345 19.9471 22.6256 20.0933 22.4572C20.1798 22.3589 20.3722 22.3635 20.496 22.2873C20.7568 22.1251 21.0608 22.1021 21.3356 21.9922C21.6704 21.8582 22.0245 21.8016 22.3782 21.7521C22.8015 21.6933 23.22 21.5757 23.6555 21.6451C23.9303 21.4592 24.2376 21.6681 24.5204 21.5694C24.8178 21.4646 25.122 21.5407 25.4107 21.5856C25.8427 21.6548 26.2886 21.6771 26.7041 21.7804C27.2951 21.9279 27.8785 22.1332 28.4592 22.3277C28.8152 22.4463 29.1485 22.6128 29.4985 22.7417C29.8417 22.8665 30.1348 23.1275 30.4731 23.2714C30.9283 23.4642 31.2667 23.8611 31.761 23.9752C31.9819 24.2064 32.2552 24.3688 32.5209 24.5413C32.8338 24.7453 33.1307 24.9765 33.4436 25.1806C33.8293 25.4322 34.2186 25.6823 34.6183 25.9101C35.1881 26.2347 35.7793 26.5059 36.4135 26.6935C36.8432 26.8209 37.2661 26.9442 37.7136 26.9701C37.8809 26.9801 38.0542 26.9551 38.2002 27.0926C38.245 27.1347 38.3668 27.1379 38.4325 27.1089C38.5495 27.0551 38.6499 26.9596 38.7422 27.1323C38.9727 27.0228 39.225 27.1077 39.4623 27.0518C39.5055 27.0424 39.5494 26.9959 39.5858 27.0056C39.9671 27.0924 40.3051 26.9374 40.6539 26.8309C40.7841 26.7905 41.1462 26.7981 41.2801 26.8304C41.3096 26.8378 41.3658 26.8435 41.3718 26.8333C41.502 26.54 41.8089 26.6534 42.0199 26.5444C42.0244 26.481 42.0289 26.4159 42.0333 26.3525C42.0608 26.3385 42.0895 26.3087 42.1122 26.3121C42.3623 26.3525 42.5402 26.2111 42.7476 26.1036C43.2485 25.845 43.7643 25.6016 44.2971 25.4178C44.4929 25.3501 44.592 25.1714 44.805 25.135C45.0019 25.1027 45.2316 25.0799 45.3805 24.8975C45.6977 24.8896 45.9185 24.6398 46.2079 24.5734C46.3068 24.5502 46.4159 24.381 46.5267 24.5673C46.5282 24.571 46.5992 24.5423 46.6275 24.5178C46.846 24.3261 47.1314 24.3426 47.3862 24.2649C47.8236 24.131 48.2894 24.1972 48.7278 24.0739C48.7712 24.0611 48.823 24.0788 48.8705 24.0821C49.1415 24.1011 49.4201 24.1648 49.6845 24.1267C49.9312 24.0891 50.1501 24.1716 50.3723 24.2049C50.6121 24.2411 50.8472 24.3194 51.0952 24.3385C51.3397 24.3574 51.5582 24.5212 51.8175 24.481C52.2494 24.7287 52.7587 24.7803 53.194 25.0053C53.392 25.1075 53.6192 25.0191 53.8058 25.1842C53.8792 25.2477 54.0609 25.2534 54.1781 25.3235C54.4295 25.4719 54.7161 25.4442 54.9686 25.476C55.1429 25.6651 55.1856 25.8626 55.1696 26.0914C55.1492 26.3836 55.1044 26.6705 55.1893 26.9736C55.2627 27.2387 55.0959 27.2978 54.7945 27.2573C54.451 27.212 54.1329 27.0819 53.7958 27.0212C53.5356 26.9747 53.2666 26.9258 53.0194 26.7935C52.8643 26.7102 52.6662 26.7105 52.4954 26.649C52.2866 26.5743 52.0867 26.4736 51.8843 26.3834C51.8293 26.3601 51.7761 26.3122 51.723 26.312C51.47 26.3138 51.234 26.2495 51.0014 26.1607C50.2125 25.858 49.3775 25.8615 48.5528 25.7932C48.4296 25.7846 48.341 25.812 48.2571 25.8981C48.2362 25.9196 48.1678 25.9361 48.158 25.9248C48.0117 25.7412 47.872 25.8924 47.7399 25.9345C47.3312 26.0633 46.8949 26.1053 46.5154 26.3228C46.4227 26.1306 46.3215 26.3641 46.2046 26.3152C45.9882 26.2241 45.9163 26.4171 45.8371 26.5637C45.7133 26.6134 45.5035 26.4272 45.4665 26.704C45.4656 26.7163 45.4414 26.7341 45.4308 26.7334C45.0164 26.6655 44.7792 27.0221 44.4481 27.1546C44.2151 27.2479 43.9485 27.3177 43.7791 27.5393C43.7636 27.5595 43.7195 27.5829 43.7006 27.5745C43.4477 27.4737 43.2878 27.6854 43.1134 27.7775C42.9059 27.8868 42.7225 28.0049 42.4733 27.9768C42.1908 27.9447 42.0367 28.1762 41.826 28.3313C41.7768 28.3013 41.726 28.2695 41.6497 28.2217C41.5895 28.2741 41.5201 28.3559 41.4316 28.4063C41.3027 28.4804 41.176 28.5724 41.0097 28.5466C40.9467 28.5369 40.8498 28.5071 40.8229 28.5371C40.5648 28.8144 40.1985 28.6137 39.9076 28.7525C39.7119 28.8449 39.4888 28.824 39.2718 28.8159C39.0919 28.8086 38.9061 28.709 38.7239 28.8607C38.6243 28.944 38.5438 28.6536 38.3581 28.8051C38.2645 28.8799 38.0526 28.8244 37.8983 28.8048C37.765 28.7884 37.6085 28.8517 37.5003 28.7044C37.481 28.6766 37.4109 28.6681 37.3695 28.6776C37.2312 28.7086 37.1131 28.7782 36.9607 28.6561C36.8535 28.5708 36.6642 28.6725 36.5238 28.53C36.4561 28.4616 36.2785 28.497 36.1497 28.4933C36.0367 28.4907 35.9309 28.485 35.8571 28.3773C35.8459 28.3606 35.781 28.379 35.7697 28.3623C35.6274 28.1472 35.3551 28.3227 35.1746 28.1474C35.0486 28.0272 34.8408 27.9631 34.6621 27.8887C34.3923 27.7761 34.0785 27.7365 33.857 27.5141C33.6191 27.5275 33.5731 27.1741 33.3108 27.2318C33.2857 27.2371 33.239 27.2215 33.2297 27.2031C33.1004 26.927 32.7749 26.9025 32.5827 26.6927C32.4084 26.5037 32.1318 26.4118 31.9086 26.2653C31.6465 26.0931 31.3907 25.9072 31.1345 25.7266C31.1092 25.7089 31.0961 25.6691 31.0704 25.6567C30.706 25.4808 30.3832 25.2407 30.0487 25.0157C29.7328 24.8044 29.3866 24.621 29.0083 24.5167C28.8694 24.4787 28.7454 24.3816 28.62 24.3021C28.2005 24.0287 27.6866 23.9927 27.254 23.7556C27.0802 23.6603 26.8447 23.7659 26.6907 23.5906C26.2543 23.5583 25.8405 23.3808 25.3936 23.3973C25.2482 23.4031 25.0719 23.4456 24.9538 23.2887C24.9409 23.2702 24.8833 23.2591 24.8665 23.272C24.7211 23.3786 24.5861 23.4116 24.4653 23.2422C24.3525 23.3882 24.2002 23.2909 24.0661 23.3116C23.5311 23.3997 22.99 23.4238 22.4539 23.5278C21.8496 23.6447 21.2942 23.8995 20.7012 24.0331C20.5502 24.0668 20.4832 24.292 20.288 24.2005C19.9714 24.403 19.61 24.5122 19.2717 24.6707C18.6938 24.9433 18.1568 25.3126 17.521 25.452C17.201 25.7286 16.7652 25.7122 16.4037 25.8992C16.1066 26.0517 15.7502 26.0887 15.4204 26.1771C15.2167 26.2318 15.0149 26.1841 14.8108 26.2194C14.6336 26.2494 14.4505 26.1871 14.2639 26.2749C14.1707 26.3179 14.0233 26.2509 13.9031 26.2249C13.8002 26.2035 13.692 26.1836 13.5978 26.1398C13.4779 26.0837 13.3786 26.2642 13.2323 26.1302C13.1492 26.0536 12.9502 26.1175 12.813 26.0814C12.6861 26.0496 12.5714 25.9708 12.4538 25.9077C12.3788 25.8671 12.2933 25.9761 12.2059 25.8603C12.1443 25.78 11.9908 25.7746 11.8788 25.7331C11.7823 25.6963 11.6861 25.656 11.5897 25.6174C11.4934 25.5788 11.3816 25.5586 11.3046 25.4966C11.2143 25.4214 11.118 25.4075 11.0142 25.3755C10.905 25.3431 10.8259 25.2102 10.7183 25.1797C10.6124 25.1511 10.5186 25.1269 10.428 25.0569C10.3475 24.9946 10.2413 24.9695 10.1512 24.9172C9.30289 24.4281 8.46068 23.9271 7.60619 23.4499C7.2811 23.268 6.97844 23.0435 6.64848 22.8807C6.35952 22.7384 6.09031 22.5162 5.74247 22.5078C5.31802 22.204 4.788 22.1704 4.32887 21.9579C4.26031 21.9266 4.1791 21.9245 4.10391 21.9121C3.90098 21.8803 3.69891 21.8361 3.49474 21.8218C3.2941 21.8078 3.0776 21.8687 2.89223 21.8133C2.71717 21.7621 2.59987 21.998 2.41058 21.8468C2.3435 21.7943 2.15299 21.9137 2.01763 21.9272C1.58288 21.9728 1.17682 22.1142 0.762936 22.2409C0.618317 22.2857 0.519374 22.3601 0.403199 22.428C0.318422 22.4769 0.214494 22.4962 0.0586995 22.549L0.0546875 22.5558Z" fill="black"/>
<mask id="mask1_1_8260" style="mask-type:luminance" maskUnits="userSpaceOnUse" x="17" y="34" width="23" height="12">
<path d="M39.3388 35.6193L18.6953 34.1758L17.9761 44.4615L38.6196 45.905L39.3388 35.6193Z" fill="white"/>
</mask>
<g mask="url(#mask1_1_8260)">
<path d="M38.0831 40.5566C38.2886 40.578 38.5078 40.5545 38.7014 40.6936C38.8142 40.7757 38.8739 40.8577 38.8566 41.0033C38.8316 41.2103 38.8241 41.4185 38.8096 41.6261C38.804 41.7053 38.7804 41.7904 38.7965 41.864C38.822 41.979 38.9394 42.0968 38.8486 42.2055C38.7754 42.2923 38.6524 42.3562 38.5404 42.3891C38.2139 42.4812 38.0323 42.7762 37.7387 42.9273C37.155 43.2313 36.5903 43.5686 35.978 43.8264C35.2363 44.1389 34.4755 44.3705 33.7077 44.6015C33.1062 44.7805 32.4838 44.8537 31.8814 45.0203C31.7659 45.0529 31.6295 45.0062 31.5049 45.017C31.3875 45.0265 31.2689 45.0535 31.1551 45.088C30.8807 45.1679 30.5747 45.0669 30.3321 45.1472C30.0334 45.2448 29.7706 45.1592 29.4951 45.1524C29.3591 45.1499 29.2261 45.2308 29.0826 45.1589C28.9374 45.0851 28.7904 45.1137 28.6433 45.1936C28.5973 45.2187 28.5045 45.1556 28.4335 45.1329C28.3764 45.1148 28.297 45.0615 28.2655 45.0823C27.933 45.3102 27.6519 44.9793 27.3337 45.003C27.0173 45.0251 26.6799 45.0192 26.3802 44.9292C26.1376 44.8574 25.8706 44.883 25.6619 44.7817C25.4172 44.6638 25.1745 44.6946 24.9335 44.6512C24.9176 44.6501 24.896 44.6557 24.8859 44.6479C24.5975 44.3713 24.18 44.4234 23.852 44.2325C23.6107 44.0918 23.3154 44.0658 23.0511 43.9501C22.5621 43.7355 22.0789 43.5124 21.6045 43.2653C20.9407 42.9199 20.3578 42.4529 19.7277 42.0551C19.5346 41.9338 19.3757 41.7529 19.2214 41.5811C18.9736 41.3056 18.6646 41.0965 18.4055 40.8308C18.2768 40.698 18.2347 40.5924 18.2548 40.4311L18.4463 40.1208C18.4894 40.0602 18.5377 40.0017 18.5776 39.9372C18.7031 39.7356 18.8269 39.5337 18.9627 39.3115C19.3115 39.3572 19.5816 39.5671 19.8373 39.8043C20.1314 40.076 20.4273 40.346 20.7233 40.6161C20.7565 40.6467 20.7911 40.6828 20.8307 40.6979C21.1497 40.8157 21.3861 41.0516 21.646 41.2554C21.7953 41.372 22.0006 41.42 22.1461 41.5398C22.2916 41.6596 22.4703 41.7093 22.6106 41.8022C22.9266 42.0135 23.2744 42.1475 23.6197 42.2689C24.0408 42.4187 24.4404 42.6217 24.8837 42.7323C25.2279 42.8182 25.5906 42.8666 25.9139 43.0484C26.0161 43.1051 26.1581 43.0973 26.2833 43.1025C26.7191 43.1188 27.1408 43.1837 27.5398 43.3708C27.5758 43.3874 27.6463 43.3906 27.6655 43.369C27.7597 43.2606 27.8794 43.345 27.977 43.3147C28.1054 43.2742 28.1756 43.4842 28.3401 43.3578C28.4261 43.2913 28.6173 43.3648 28.7616 43.3749C28.906 43.385 29.0497 43.4039 29.1931 43.4015C29.2816 43.4006 29.3679 43.3554 29.4564 43.3545C29.5432 43.3517 29.6311 43.3844 29.7209 43.3907C29.8494 43.3996 29.9636 43.4607 30.1104 43.3843C30.2317 43.3203 30.4086 43.4458 30.5574 43.3165C30.6082 43.2723 30.7431 43.3153 30.8377 43.329C31.1178 43.3698 31.3837 43.2098 31.6686 43.2828C31.7851 43.3121 31.8677 43.0155 32.034 43.2181C32.1739 43.1395 32.3251 43.1518 32.4796 43.1432C32.6199 43.1353 32.7551 42.9979 32.893 42.9987C33.1865 42.9998 33.4297 42.7338 33.7377 42.8562C33.8635 42.7023 34.0583 42.6982 34.2239 42.632C34.4568 42.5386 34.6875 42.4256 34.9303 42.3683C35.1802 42.3097 35.3556 42.0532 35.6429 42.1175C35.9695 41.9245 36.3038 41.7463 36.6159 41.5329C36.8312 41.387 37.0741 41.3032 37.293 41.1575C37.5565 40.9814 37.7786 40.7635 38.0779 40.5562L38.0831 40.5566Z" fill="black"/>
<path d="M26.5619 36.4663C26.5568 36.6906 26.3774 36.8284 26.319 37.0065C26.2559 37.2001 26.2122 37.3704 25.9972 37.435C25.761 37.8022 25.335 37.7742 24.9888 37.8933C24.5539 38.0433 24.5423 38.0071 24.1997 37.6701C24.1567 37.6281 24.0968 37.5479 24.0627 37.5561C23.8014 37.6245 23.7701 37.3889 23.6712 37.2617C23.5705 37.1326 23.3712 37.0497 23.4254 36.8306C23.202 36.6364 23.2806 36.3465 23.2197 36.1053C23.1823 35.9559 23.2722 35.7587 23.3435 35.5992C23.534 35.1757 23.8886 34.9104 24.2809 34.6885C24.57 34.7529 24.8707 34.4485 25.1627 34.7236C25.2175 34.7752 25.3666 34.7167 25.4359 34.7622C25.5187 34.8175 25.568 34.8722 25.6455 34.7751C25.8777 34.8939 26.097 35.0207 26.2358 35.2621C26.3747 35.5017 26.4074 35.7675 26.467 36.0281C26.501 36.1738 26.5279 36.3207 26.5583 36.4678L26.5619 36.4663Z" fill="black"/>
<path d="M35.604 36.071C35.7409 36.3388 35.8311 36.6175 35.8935 36.9137C35.9825 37.3356 35.8692 37.9184 35.6272 38.2676C35.3913 38.6066 35.0243 38.6693 34.6775 38.7724C34.5926 38.7983 34.489 38.7628 34.4241 38.8555C34.3707 38.7598 34.2729 38.7671 34.1866 38.7363C34.0744 38.6966 33.9808 38.6193 33.8465 38.617C33.7495 38.6138 33.6524 38.5097 33.5565 38.5154C33.3773 38.5241 33.4976 38.3203 33.3701 38.2972C33.2863 38.2825 33.209 38.224 33.1284 38.1883C33.0339 38.1481 33.1319 37.9357 32.9411 37.9825C32.9243 37.8946 32.9239 37.7991 32.8887 37.7206C32.7065 37.3169 32.8226 36.9466 33.0003 36.5805C33.0519 36.4745 33.0856 36.2964 33.1631 36.2753C33.4463 36.1961 33.5707 35.8846 33.859 35.8341C34.3067 35.7539 34.7548 35.5943 35.1674 35.9662C35.2572 36.0468 35.4314 36.0342 35.6074 36.073L35.604 36.071Z" fill="black"/>
</g>
<mask id="mask2_1_8260" style="mask-type:luminance" maskUnits="userSpaceOnUse" x="1" y="50" width="54" height="18">
<path d="M54.6421 54.0206L2.17188 50.3516L1.23897 63.6927L53.7092 67.3618L54.6421 54.0206Z" fill="white"/>
</mask>
<g mask="url(#mask2_1_8260)">
<path d="M26.7163 53.4835C8.74275 51.5192 -0.343965 56.0129 -2.64062 58.5053L-0.755018 66.9498L25.461 71.436L55.7718 65.4197C53.5756 62.2594 44.6899 55.4478 26.7163 53.4835Z" fill="#BDA3FA"/>
<path d="M53.2139 61.9996C52.8485 62.4198 52.487 62.8349 52.1273 63.2483C51.7097 62.9733 51.3184 62.7266 50.937 62.4647C50.6635 62.2776 50.4097 62.0635 50.1381 61.8747C49.7938 61.6384 49.3663 61.5307 49.0915 61.1861C48.6488 61.1427 48.4241 60.6884 47.9862 60.6029C47.8431 60.5752 47.7178 60.3684 47.5455 60.3033C47.3647 60.234 47.169 60.1991 47.0235 60.0545C46.8946 59.9253 46.7122 59.8771 46.5639 59.773C46.4154 59.6707 46.2079 59.6279 46.07 59.475C46.0504 59.4524 46.0207 59.422 45.9975 59.4239C45.7605 59.4498 45.6004 59.26 45.4127 59.2132C45.225 59.1665 45.1824 58.9407 44.9844 58.964C44.8168 58.9841 44.715 58.8213 44.5734 58.7973C44.2954 58.7513 44.1031 58.5415 43.8455 58.4563C43.7487 58.4248 43.5981 58.5292 43.532 58.3371C43.504 58.2573 43.335 58.2208 43.2267 58.176C43.1029 58.1249 42.9666 58.1013 42.847 58.0416C42.6555 57.9469 42.6615 57.9367 42.4235 57.9253C42.4333 58.1648 42.3773 58.3837 42.4403 58.6463C42.5115 58.9431 42.4365 59.2828 42.3862 59.5976C42.3712 59.685 42.2384 59.7376 42.344 59.8723C42.3781 59.9154 42.2856 60.0504 42.2647 60.1463C42.2097 60.4024 42.1703 60.6614 42.105 60.9133C42.093 60.9584 41.9853 60.981 41.9155 61.0168L41.884 61.4673C41.706 61.6618 41.5539 61.8634 41.3677 62.022C41.048 62.295 40.732 62.5895 40.3645 62.7866C40.1294 62.9117 39.9058 63.0729 39.6503 63.1611C39.5959 63.1803 39.5085 63.2167 39.4887 63.1958C39.4245 63.1277 39.3788 63.0979 39.3127 63.1835C39.303 63.1952 39.2882 63.2048 39.2769 63.2146C39.1075 63.3602 38.9468 63.5347 38.6993 63.3564C38.5897 63.5062 38.3399 63.3613 38.3205 63.436C38.2649 63.6497 38.0745 63.5391 38.0036 63.6173C37.9001 63.7321 37.8569 63.5398 37.7903 63.6077C37.699 63.6986 37.6319 63.6726 37.5549 63.5841C37.5337 63.5596 37.4654 63.5496 37.4308 63.5631C37.0214 63.7272 36.6423 63.584 36.2724 63.4361C36.1812 63.3996 36.1313 63.3289 36.0352 63.4142C36.0068 63.4405 35.9143 63.4482 35.9114 63.4391C35.8278 63.244 35.6637 63.3139 35.5153 63.2859C35.3825 63.2624 35.2826 63.098 35.1182 63.0971C34.9362 63.095 34.8238 62.9563 34.6807 62.8791C34.5511 62.8099 34.3772 62.8172 34.2534 62.7413C33.95 62.5538 33.6707 62.3238 33.3514 62.16C33.3302 61.9322 33.0226 62.0822 32.9565 61.8388C32.9141 61.6855 32.6602 61.5988 32.5156 61.4666C32.3758 61.3401 32.2421 61.2034 32.1251 61.0555C32.0002 60.8947 31.7119 60.9205 31.6842 60.6586C31.3675 60.5339 31.268 60.1608 30.9574 60.0241C30.8905 59.9947 30.8546 59.902 30.7964 59.8484C30.6802 59.7394 30.7264 59.5092 30.4876 59.4837C30.3296 59.4673 30.419 59.1747 30.2089 59.1706C29.9656 58.8299 29.7222 58.491 29.479 58.1503C29.4436 58.1001 29.4126 58.013 29.3707 58.0048C29.1401 57.9639 29.1397 57.741 29.0326 57.6044C28.8896 57.4229 28.7693 57.2217 28.6246 57.04C28.4328 56.7984 28.1907 56.5923 28.1322 56.2663C28.1295 56.2537 28.0767 56.25 28.0143 56.2315C27.9984 56.2817 27.9702 56.331 27.9667 56.382C27.9308 56.8447 27.8413 57.3142 27.8819 57.7716C27.9358 58.3908 27.7956 59.0054 27.8542 59.609C27.9193 60.2963 27.7949 60.9632 27.7935 61.6405C27.7927 61.8544 27.6852 62.0769 27.8426 62.2789C27.6519 62.5273 27.8539 62.7996 27.7965 63.0645C27.7392 63.3275 27.687 63.6192 27.7434 63.8743C27.8669 64.4348 27.6914 64.9726 27.7238 65.5461L26.0025 65.4257C26.0131 64.7685 25.9299 64.1119 26.0201 63.4532C26.0354 63.3357 26.0907 63.2034 25.9711 63.0925C25.9528 63.0753 26.003 62.9903 26.0174 62.9365C26.0395 62.8479 26.0812 62.757 26.0731 62.6698C26.0637 62.5524 25.9145 62.4093 26.0156 62.3297C26.1615 62.2161 26.0105 62.149 26.0236 62.0632C26.0413 61.9371 26.0207 61.8013 26.0573 61.6818C26.1144 61.4983 25.9659 61.3199 26.0685 61.1431C25.9451 61.0355 26.0272 60.974 26.098 60.8728C26.1744 60.7668 25.9064 60.603 26.1253 60.4821C25.9575 60.1255 26.1118 59.7649 26.1191 59.4081C26.1375 58.6135 26.0834 57.8191 26.1743 57.0243C26.1916 56.8787 26.1129 56.7388 26.199 56.5697C26.2523 56.4656 26.1552 56.2854 26.1209 56.1186C25.8811 56.2344 25.7543 56.4555 25.6368 56.6684C25.5355 56.8523 25.3921 56.9802 25.2479 57.1205C25.1379 57.226 25.0578 57.3601 24.9462 57.4637C24.8213 57.5806 24.713 57.7127 24.5933 57.8317C24.4717 57.9523 24.3791 58.0873 24.1983 58.1189C23.8939 58.5769 23.4132 58.8492 23.0281 59.222C22.8613 59.3819 22.6864 59.5306 22.4576 59.6155C22.3341 59.6617 22.2482 59.8024 22.1284 59.8719C21.6989 60.1213 21.2765 60.3942 20.8209 60.587C20.387 60.7724 19.9592 60.9972 19.4733 61.041C19.3415 61.053 19.202 61.0751 19.0817 61.1268C18.8209 61.2395 18.5582 61.2777 18.2756 61.2473C18.1826 61.2373 18.0355 61.3172 17.9976 61.2774C17.8741 61.1467 17.751 61.3132 17.7243 61.2901C17.4793 61.0767 17.2222 61.3134 16.9791 61.2486C16.7881 61.1981 16.5939 61.1173 16.4026 61.1216C16.2006 61.127 16.0375 61.0307 15.8796 60.9613C15.7253 60.8921 15.5091 60.923 15.4222 60.8002C15.2949 60.6232 15.0992 60.6892 14.971 60.6006C14.6471 60.3763 14.3176 60.157 14.1173 59.7839C13.9983 59.5634 13.8771 59.2984 13.5557 59.2654C13.4995 59.2597 13.4013 59.1467 13.4114 59.1032C13.4554 58.9046 13.3327 58.7616 13.2092 58.707C12.988 58.6084 13.1936 58.2726 12.911 58.2422C12.8452 58.0696 12.8516 57.8772 12.8064 57.7149C12.7468 57.5038 12.8205 57.2596 12.627 57.0674C12.5211 56.9627 12.625 56.7419 12.5187 56.5929C12.4414 56.4849 12.6737 56.4251 12.571 56.2747C12.5213 56.2022 12.5958 56.0465 12.6111 55.9291C12.6152 55.8958 12.6194 55.8607 12.613 55.8266C12.5815 55.644 12.5976 55.4895 12.6814 55.3026C12.7758 55.0916 12.7435 54.8205 12.8479 54.5908C12.9254 54.4194 12.9823 54.2377 13.0518 54.0533C12.8719 53.9947 12.6829 53.9921 12.4906 54.0866C12.3972 54.1313 12.2817 54.2665 12.1812 54.0844C12.0461 54.2465 11.8077 54.0388 11.6782 54.2208C11.5838 54.1293 11.5223 54.3761 11.4008 54.242C11.3664 54.2025 11.2172 54.2628 11.1202 54.2843C11.0179 54.3055 10.9172 54.355 10.8163 54.355C10.4646 54.3517 10.1408 54.5819 9.77825 54.4805C9.76265 54.4759 9.73826 54.4707 9.73073 54.4772C9.46303 54.7645 9.05525 54.6015 8.75282 54.7785C8.47438 54.6883 8.27021 54.9269 8.00927 54.9405C7.75889 54.9548 7.50695 55.0168 7.26331 55.0864C6.76159 55.23 6.27705 55.4313 5.74473 55.456C5.66667 55.4594 5.59593 55.5606 5.51492 55.6062C5.45777 55.6393 5.43074 55.4694 5.34743 55.5732C5.19047 55.7692 4.94132 55.7659 4.73174 55.8291C4.47517 55.9067 4.22166 56.0163 3.97184 56.0731C3.71851 56.1297 3.48318 56.2069 3.25444 56.3165C3.0532 56.4121 2.80287 56.3751 2.63007 56.57C2.58024 56.6249 2.3408 56.5586 2.32954 56.5932C2.28888 56.7195 2.18618 56.7211 2.10455 56.7755C1.89672 56.9149 1.67639 56.9295 1.42086 56.8657C1.26462 56.3684 1.10572 55.8585 0.945312 55.345C1.19456 55.2457 1.45965 55.1475 1.71704 55.0329C2.44904 54.7073 3.24412 54.5418 3.95819 54.1691C4.77663 54.0742 5.5196 53.6928 6.32626 53.5388C6.56642 53.4937 6.8157 53.4191 7.05443 53.3438C7.3022 53.2657 7.56152 53.1741 7.84472 53.171C8.08544 53.1683 8.32148 52.9797 8.56458 52.9684C9.15572 52.9372 9.72138 52.7645 10.2962 52.6632C11.0302 52.5359 11.7848 52.4949 12.4999 52.2584C12.7821 52.3454 13.0505 52.1997 13.3306 52.2157C13.4786 52.2243 13.63 52.1836 13.777 52.1549C14.1841 52.0755 14.605 52.1262 15.0039 52.0373C15.2553 51.9824 15.5137 52.0553 15.736 51.9877C15.9781 51.9145 16.1991 51.967 16.4282 51.953C16.5934 51.9433 16.7571 51.9035 16.9239 51.8957C17.0765 51.8887 17.2353 51.944 17.3708 51.8279C17.3802 51.8197 17.4025 51.8301 17.4183 51.8312C17.8553 51.8299 18.2918 51.8339 18.7294 51.8239C18.9579 51.8186 19.187 51.7798 19.4168 51.7817C19.6573 51.7826 19.9096 51.8675 20.1341 51.8177C20.6607 51.6989 21.1702 51.8477 21.6872 51.8397C21.8856 51.8359 22.0908 51.9369 22.2815 51.7893C22.3096 51.7665 22.3777 51.8048 22.4227 51.7938C22.6101 51.7433 22.7442 51.9755 22.9775 51.8521C23.1336 51.7693 23.3835 51.8628 23.5912 51.8773L24.8866 51.9679C25.0943 51.9824 25.3098 52.0364 25.507 51.9989C25.6577 51.9688 25.7155 52.1532 25.8766 52.076C25.9917 52.0222 26.1606 52.0358 26.2925 52.0715C26.9068 52.24 27.553 52.1809 28.1627 52.3137C28.6453 52.4182 29.1269 52.436 29.6079 52.4873C29.8555 52.5134 30.0665 52.6573 30.329 52.6474C30.5542 52.6384 30.8022 52.6079 31.0043 52.7777C31.0344 52.8028 31.0973 52.7878 31.1449 52.7911C31.2734 52.8001 31.4027 52.7967 31.5283 52.8214C31.6592 52.8465 31.7838 52.9118 31.9145 52.9386C32.0401 52.9633 32.17 52.953 32.2978 52.9707C32.4082 52.9855 32.5065 53.0472 32.6288 53.0434C32.7475 53.0411 32.886 53.0579 32.9843 53.1196C33.1843 53.2432 33.4015 53.223 33.6131 53.2573C33.8073 53.2885 34.0142 53.3136 34.1868 53.4C34.3919 53.5027 34.6285 53.4574 34.8098 53.5461C35.0219 53.6494 35.2315 53.6357 35.441 53.6751C35.5877 53.7013 35.7301 53.7643 35.8701 53.8113C36.2036 53.923 36.5438 53.991 36.8854 54.0627C37.0632 54.0999 37.2934 54.0965 37.4024 54.2067C37.5807 54.389 37.8205 54.2466 38.0071 54.4117C38.1469 54.5365 38.412 54.5143 38.6186 54.5694C38.893 54.6417 39.1356 54.8143 39.4255 54.8416C39.5523 55.0274 39.7811 54.8665 39.9448 55.0035C40.0735 55.1116 40.2797 55.1207 40.4449 55.1871C40.5962 55.2489 40.733 55.3416 40.8866 55.3966C41.0575 55.4563 41.2457 55.4712 41.4126 55.5377C41.9103 55.7299 42.4031 55.9412 42.8986 56.1404C43.215 56.2686 43.5497 56.3645 43.8499 56.5217C44.1554 56.681 44.4923 56.77 44.7848 56.9373C45.2134 57.1813 45.6923 57.3138 46.1117 57.5642C46.7111 57.9209 47.3637 58.1735 47.9667 58.5287C48.2708 58.7074 48.5702 58.9034 48.8956 59.0553C49.2039 59.1989 49.4812 59.4075 49.7709 59.5887C50.5826 60.0965 51.4321 60.5432 52.155 61.1827C52.31 61.3191 52.4952 61.4276 52.6776 61.5253C52.8873 61.6372 53.0592 61.7836 53.2104 61.9994L53.2139 61.9996ZM28.8693 54.1972C28.8907 54.2712 28.8905 54.3243 28.9166 54.3562C29.1215 54.588 29.2691 54.8548 29.4109 55.1282C29.4747 55.253 29.6028 55.3433 29.6884 55.4589C29.7692 55.5689 29.8069 55.7378 29.9107 55.7964C30.0487 55.8715 29.9562 56.056 30.1412 56.1167C30.2675 56.1574 30.368 56.3642 30.4191 56.5182C30.4777 56.692 30.6574 56.7276 30.7321 56.8726C30.8444 57.0873 30.9343 57.3448 31.1119 57.4863C31.4721 57.7732 31.6153 58.2555 32.0405 58.4727C32.157 58.7285 32.379 58.8925 32.5594 59.0944C32.9252 59.5038 33.3392 59.8564 33.7455 60.2173C34.1717 60.5973 34.6249 60.9456 35.1374 61.2043C35.2825 61.2781 35.4419 61.3264 35.5811 61.4086C36.3544 61.8589 36.3599 61.8557 37.146 61.8948C37.3082 61.9026 37.4985 61.8363 37.6409 62.0001C37.6606 62.0227 37.7463 61.9863 37.8016 61.9795C37.8924 61.97 37.9921 61.9362 38.0717 61.9613C38.1616 61.9906 38.2057 61.7902 38.2998 61.9365C38.3477 62.0106 38.4352 61.8204 38.5069 61.9599C38.538 62.0204 38.6499 62.0388 38.725 62.0777C38.8342 61.9828 38.9339 61.873 39.0541 61.7983C39.152 61.7379 39.2754 61.7182 39.3877 61.6801C39.4439 61.6611 39.5114 61.6569 39.5546 61.621C39.7535 61.4581 40.0001 61.3197 40.1226 61.1107C40.2553 60.883 40.3955 60.6487 40.4991 60.4066C40.594 60.1868 40.5706 59.9146 40.6656 59.6948C40.7689 59.4562 40.7101 59.2346 40.7245 59.0039C40.7536 58.562 40.6409 58.1509 40.5927 57.7266C40.5778 57.5858 40.5082 57.3934 40.4026 57.3348C40.1984 57.2197 40.0991 57.0217 39.9737 56.9174C39.6965 56.8344 39.4459 56.801 39.2382 56.6856C38.7309 56.4043 38.1599 56.3237 37.62 56.1533C37.2618 56.0398 36.8863 55.9463 36.5317 55.8331C36.1597 55.7151 35.776 55.637 35.4039 55.5208C35.236 55.4684 35.0693 55.3736 34.8805 55.3675C34.6811 55.3606 34.4897 55.2906 34.2997 55.2508C33.911 55.1688 33.5262 55.0817 33.1491 54.9616C32.7097 54.8213 32.2485 54.789 31.799 54.6921C31.3616 54.5979 30.9213 54.4451 30.4572 54.4816C30.3949 54.4861 30.3075 54.4976 30.271 54.4632C30.0681 54.2793 29.8063 54.406 29.5966 54.3188C29.3765 54.2291 29.1609 54.1752 28.8691 54.2007L28.8693 54.1972ZM25.4573 53.8985C25.2926 53.8251 25.1732 53.6363 24.969 53.7989C24.939 53.8233 24.8365 53.7472 24.7632 53.7332C24.6777 53.7166 24.5896 53.7105 24.5046 53.7134C24.4479 53.7147 24.3522 53.7681 24.3426 53.7533C24.2402 53.5994 24.0825 53.6538 23.9488 53.6427C23.831 53.6327 23.7191 53.6142 23.5855 53.6792C23.4317 53.7533 23.2351 53.7077 23.0764 53.5993C22.4434 53.7744 21.8007 53.4288 21.1671 53.6374C21.0933 53.4536 20.9948 53.6483 20.9102 53.6194C20.8012 53.5835 20.6488 53.488 20.5876 53.5279C20.4262 53.6351 20.2689 53.5834 20.1296 53.5525C19.9938 53.5217 19.9024 53.7665 19.7531 53.5739C19.6185 53.4 19.4757 53.6199 19.3264 53.606C18.9538 53.5728 18.5842 53.5717 18.207 53.6037C17.7925 53.6384 17.3676 53.7201 16.9457 53.6323C16.8934 53.6215 16.8304 53.6631 16.7717 53.6678C16.5297 53.6881 16.3004 53.8064 16.0527 53.7573C15.8905 53.7247 15.3103 53.7248 15.2701 53.8193C15.1941 53.9962 15.0257 54.0268 14.919 54.1361C14.8104 54.247 14.7317 54.4113 14.6979 54.5663C14.6716 54.6901 14.6255 54.793 14.5718 54.9024C14.4688 55.111 14.4387 55.3388 14.4188 55.5726C14.3994 55.7994 14.3168 56.02 14.2886 56.2462C14.2766 56.3427 14.3869 56.4848 14.3476 56.5404C14.2374 56.7007 14.2231 56.8288 14.319 57C14.3616 57.0738 14.3201 57.1876 14.2173 57.2405C14.2971 57.3133 14.288 57.3675 14.2149 57.4526C14.1918 57.4793 14.276 57.6656 14.3267 57.6744C14.4668 57.6948 14.4236 57.8068 14.4676 57.8594C14.6393 58.0606 14.5279 58.4136 14.8646 58.5309C14.9647 58.5662 14.9987 58.7631 15.0871 58.8648C15.1803 58.9739 15.3422 58.8844 15.4729 58.9873C15.7178 59.1778 15.9654 59.4056 16.3233 59.3722C16.3642 59.368 16.4122 59.3908 16.4534 59.4078C16.7347 59.5336 17.0406 59.5603 17.3348 59.6269C17.7963 59.7299 18.2414 59.5612 18.6877 59.4774C19.037 59.4134 19.4151 59.3691 19.7153 59.1991C20.2013 58.9253 20.7848 58.8264 21.1828 58.3961C21.3978 58.3564 21.5166 58.1754 21.6787 58.0576C21.8258 57.9512 21.986 57.8616 22.1281 57.7513C22.2927 57.623 22.4509 57.4855 22.6007 57.3421C22.8262 57.1262 23.0435 56.9026 23.2625 56.6792C23.4473 56.4905 23.637 56.3057 23.8117 56.1092C23.9941 55.9044 24.1546 55.6822 24.3369 55.4791C24.7669 54.9945 25.1414 54.4707 25.4573 53.8985Z" fill="black"/>
</g>
</g>
<path d="M42.8969 14.2902L18.0803 12.5549C10.304 12.0111 3.55918 17.8743 3.01541 25.6506L1.28006 50.4672C0.736288 58.2436 6.59944 64.9884 14.3758 65.5321L39.1924 67.2675C46.9687 67.8113 53.7135 61.9481 54.2573 54.1718L55.9926 29.3552C56.5364 21.5788 50.6733 14.834 42.8969 14.2902Z" stroke="black" stroke-width="1.76434"/>
</g>
<defs>
<clipPath id="clip0_1_8260">
<rect width="57" height="57" fill="white" transform="translate(0.226562 11.5)"/>
</clipPath>
</defs>
</svg>
