<svg width="59" height="80" viewBox="0 0 59 80" fill="none" xmlns="http://www.w3.org/2000/svg">
<g clip-path="url(#clip0_1_8235)">
<mask id="mask0_1_8235" style="mask-type:luminance" maskUnits="userSpaceOnUse" x="2" y="13" width="54" height="54">
<path d="M39.1131 13.1473L14.3306 15.3155C7.05029 15.9524 1.66478 22.3706 2.30173 29.6509L4.46992 54.4334C5.10686 61.7137 11.5251 67.0992 18.8054 66.4623L43.5879 64.2941C50.8682 63.6572 56.2537 57.239 55.6167 49.9587L53.4486 25.1761C52.8116 17.8958 46.3934 12.5103 39.1131 13.1473Z" fill="white"/>
</mask>
<g mask="url(#mask0_1_8235)">
<path d="M39.1131 13.1482L14.3306 15.3164C7.05029 15.9534 1.66478 22.3716 2.30173 29.6519L4.46992 54.4344C5.10686 61.7147 11.5251 67.1002 18.8054 66.4633L43.5879 64.2951C50.8682 63.6581 56.2537 57.2399 55.6167 49.9596L53.4486 25.1771C52.8116 17.8968 46.3934 12.5113 39.1131 13.1482Z" fill="#F7841F"/>
<path d="M9.80267 27.3148C8.30424 32.0507 2.44292 33.9508 -0.300447 34.3089L-1.97656 15.1508L54.3432 9.07227C54.8217 13.1924 55.9345 24.0226 56.5575 34.382C43.5994 33.0362 41.5947 28.3411 38.9792 24.7621C23.612 27.2578 22.5971 22.7418 19.7794 19.8889C17.5571 22.8285 12.0414 26.5876 9.80267 27.3148Z" fill="#556EF0"/>
<path d="M22.5811 18.6126C22.581 18.6923 22.5806 18.7685 22.582 18.825C22.4181 18.9155 22.2506 18.9851 22.113 19.0928C21.9225 19.2423 21.7364 19.3825 21.5027 19.465C21.2879 19.5404 21.2541 19.6603 21.3793 19.8565C21.4841 20.0209 21.5958 20.1847 21.7268 20.3256C22.4615 21.1115 23.2511 21.8376 24.1036 22.4927C24.4056 22.7248 24.7551 22.8944 25.0713 23.1076C25.4627 23.3709 25.9149 23.5191 26.3041 23.7967C26.527 23.9561 26.8225 24.0135 27.0862 24.1126C27.5992 24.3086 28.0994 24.5801 28.63 24.6736C29.1751 24.7694 29.6933 25.0251 30.264 24.9681C30.6344 25.1128 31.049 24.9933 31.4158 25.1578C31.8665 25.0457 32.3234 25.2077 32.7738 25.1328C32.889 25.1139 33.0268 24.9885 33.1026 25.0244C33.2281 25.0825 33.3382 25.0852 33.4614 25.0762C33.6055 25.0636 33.7619 25.0092 33.8894 25.0494C34.0424 25.098 34.0984 24.8877 34.2594 24.9674C34.3352 25.0033 34.4702 24.9065 34.5798 24.8845C34.7157 24.8585 34.8595 24.8831 34.9672 24.7568C34.9978 24.7222 35.0907 24.7318 35.1532 24.7369C35.4582 24.7616 35.7275 24.6212 36.0146 24.5624C36.2948 24.506 36.5809 24.4562 36.8293 24.2998C36.841 24.2917 36.8606 24.2936 36.8768 24.2957C37.013 24.3139 37.142 24.23 37.2944 24.3123C37.3502 24.3428 37.4976 24.1847 37.6139 24.1373C37.7252 24.0939 37.8512 24.1378 37.9599 24.0238C38.046 23.9348 38.245 24.0432 38.3391 23.8844C38.3468 23.8713 38.4448 23.9176 38.5019 23.9233C38.5554 23.9274 38.6511 23.9279 38.658 23.9061C38.751 23.6323 39.0836 23.8104 39.213 23.6096C39.2193 23.6002 39.2962 23.6288 39.3335 23.6504C39.4433 23.7116 39.5284 23.6918 39.6293 23.6103C39.8889 23.3999 40.2396 23.3798 40.5182 23.2031C40.6611 23.2987 40.7859 23.1656 40.9176 23.1735C41.085 23.1837 41.1999 23.0603 41.3484 23.0366C41.4218 23.0249 41.5167 23.0166 41.5745 23.0505C41.7164 23.1337 41.8386 23.0929 41.9702 23.0389C42.0541 23.005 42.1424 22.9619 42.2274 22.9615C42.4098 22.9615 42.6004 22.8527 42.7768 22.9861C42.9355 22.8978 43.0928 22.7919 43.2682 22.9555C43.4143 22.7018 43.5942 23.0173 43.765 22.9244C43.9256 22.8377 44.0972 22.9361 44.2565 22.9753C44.4285 23.0187 44.6092 23.0595 44.7587 23.1492C44.9588 23.2698 45.1141 23.4457 45.1279 23.7049C45.1356 23.8335 45.1502 23.9597 45.1616 24.0898C45.0076 24.1723 44.8247 24.2273 44.7039 24.3441C44.5765 24.4669 44.5094 24.6516 44.4075 24.8235C44.1625 24.7351 43.9394 24.6554 43.7162 24.574C43.551 24.7904 43.3583 24.5717 43.1748 24.6001C42.7012 24.6734 42.2169 24.6839 41.74 24.7398C41.5454 24.7621 41.3564 24.869 41.1653 24.8716C40.9796 24.8736 40.8206 25.0204 40.6319 24.9483C40.5108 25.1236 40.2996 24.9969 40.1674 25.0846C40.4471 25.4675 40.7234 25.8524 41.0063 26.2315C41.1867 26.4725 41.3773 26.7073 41.5695 26.9402C41.6765 27.0708 41.7951 27.1915 41.9086 27.3144C42.0339 27.4504 42.198 27.5653 42.2757 27.725C42.3598 27.8965 42.4944 27.9981 42.6314 28.0853C42.7702 28.1741 42.7747 28.4075 42.9881 28.3977C43.2409 28.7971 43.638 29.044 43.9969 29.3207C44.5609 29.7549 45.1358 30.1916 45.7601 30.5266C46.6113 30.9835 47.4818 31.4192 48.4121 31.7079C48.6944 31.7966 48.971 31.9017 49.2576 31.9793C49.5279 32.0531 49.7971 32.1535 50.0428 32.2897C50.1767 32.3629 50.2172 32.138 50.3552 32.257C50.4434 32.3343 50.6088 32.3216 50.7403 32.3473C50.8575 32.3707 50.9761 32.3904 51.0915 32.414C51.1925 32.4352 51.2982 32.449 51.3952 32.4848C51.624 32.5693 51.8554 32.6022 52.0973 32.6341C52.4755 32.6861 52.8442 32.7707 53.2283 32.7282C53.3163 32.8427 53.4436 32.7997 53.5367 32.7703C53.7469 32.7041 53.9402 32.7882 54.1281 32.8302C54.4588 32.9057 54.7949 32.9206 55.122 32.915C55.6013 32.9067 56.0765 32.8528 56.5457 32.9924C56.6165 33.0127 56.7352 33.013 56.7794 32.9719C57.0407 32.7188 57.2214 32.9633 57.4229 33.0396L57.5619 34.6285C57.2897 34.6948 57.0351 34.7206 56.7932 34.5664C56.7688 34.5509 56.7221 34.5231 56.7157 34.5307C56.574 34.6724 56.4196 34.608 56.2656 34.5683C56.1453 34.7524 55.9341 34.7266 55.7896 34.695C55.2967 34.5876 54.7807 34.7425 54.2996 34.5473C53.8184 34.6744 53.3554 34.4032 52.8766 34.477C52.8347 34.4842 52.7857 34.4707 52.7452 34.453C52.6479 34.4137 52.5552 34.3669 52.461 34.322C52.3666 34.2754 52.3105 34.5247 52.2018 34.3553C51.954 34.377 51.7321 34.3309 51.4949 34.2312C51.2816 34.1418 51.0039 34.2264 50.7689 34.1725C50.5503 34.1226 50.3524 34.0266 50.1103 34.0336C49.9126 34.0402 49.7233 33.9009 49.5132 33.868C49.2654 33.8294 49.0232 33.7532 48.7827 33.6768C48.5714 33.6103 48.3639 33.5257 48.1567 33.4447C48.1016 33.4229 48.0445 33.3571 47.9975 33.3665C47.7344 33.4161 47.5281 33.2641 47.3112 33.1733C47.0647 33.0691 46.7609 33.078 46.5799 32.8317C46.1817 32.7939 45.8761 32.5196 45.503 32.4052C45.3646 32.3624 45.1396 32.3414 45.0845 32.116C45.073 32.0656 44.9907 31.9949 44.9431 31.9973C44.6552 32.0065 44.4648 31.8142 44.2507 31.6753C44.0423 31.5395 43.8434 31.3921 43.6381 31.2525C43.4724 31.1395 43.2972 31.0397 43.1396 30.9189C42.8549 30.7011 42.6719 30.3505 42.2749 30.2861C42.0806 30.0693 41.8864 29.8543 41.6905 29.6394C41.6493 29.5934 41.6047 29.5495 41.5568 29.5076C41.2802 29.2609 40.9446 29.0688 40.804 28.6968C40.3646 28.3917 40.1598 27.8924 39.8194 27.5042C39.483 27.121 39.1877 26.7005 38.891 26.2855C38.7376 26.0704 38.6191 25.8293 38.4755 25.5851C38.1283 25.766 37.7149 25.7579 37.3762 25.9753C37.0209 25.9231 36.7185 26.2719 36.3486 26.113C36.3302 26.1057 36.293 26.1054 36.2836 26.1187C36.0479 26.4209 35.633 26.335 35.3483 26.5423C35.2934 26.5825 35.1523 26.4886 35.0511 26.4851C34.8003 26.4734 34.5939 26.6845 34.3333 26.6417C34.0604 26.8622 33.7253 26.7569 33.4218 26.81C33.3415 26.8241 33.2539 26.8141 33.1644 26.8237C32.9578 26.8506 32.7358 26.9657 32.5191 26.8164C32.4681 26.7801 32.3628 26.8318 32.2871 26.8172C32.1467 26.7905 32.0541 26.9669 31.879 26.8689C31.7765 26.8105 31.5995 26.8933 31.4558 26.8899C31.2908 26.8867 31.1231 26.8323 30.9614 26.8464C30.7997 26.8606 30.6615 26.8195 30.5116 26.7866C30.3185 26.745 30.1267 26.6786 29.9208 26.7338C29.7962 26.7677 29.6769 26.7604 29.5735 26.6508C29.5305 26.605 29.4348 26.6045 29.3614 26.595C28.9762 26.5454 28.5721 26.5826 28.2326 26.3254C28.1815 26.2873 28.0833 26.3189 28.0078 26.3061C27.7128 26.2539 27.4403 26.1361 27.1618 26.0294C26.8852 25.9243 26.6027 25.8339 26.3345 25.7033C26.2809 25.6779 26.2052 25.6827 26.1682 25.6452C26.0321 25.5066 25.8669 25.4396 25.6789 25.4171C25.5895 25.4072 25.4953 25.403 25.416 25.3674C25.3607 25.3422 25.3398 25.2448 25.2841 25.216C25.0856 25.113 24.875 25.034 24.6763 24.9292C24.3551 24.7589 24.0195 24.6076 23.7298 24.3939C23.0934 23.9218 22.4566 23.4444 21.8667 22.9169C21.1692 22.2925 20.5318 21.6062 19.97 20.853C19.952 20.8298 19.9441 20.8003 19.9311 20.7731C19.6493 20.9536 19.5762 21.3727 19.1574 21.4236C19.1603 21.4977 19.1634 21.5736 19.1665 21.6495C19.1414 21.6658 19.1184 21.6873 19.0929 21.6984C19.0245 21.7274 18.922 21.7293 18.8892 21.78C18.7826 21.9381 18.7606 22.172 18.4829 22.1556C18.458 22.1542 18.4443 22.3024 18.3953 22.3492C18.185 22.5571 18.0714 22.8575 17.7805 22.9945C17.7449 23.0118 17.7612 23.1379 17.7492 23.2434C17.486 23.2311 17.3656 23.4541 17.2348 23.6391C17.063 23.8826 17.0762 23.8921 16.7972 23.9413C16.6858 24.1051 16.7529 24.3862 16.4704 24.4374C16.4021 24.6276 16.2995 24.7712 16.1129 24.8849C15.9784 24.9675 15.8485 25.0816 15.7175 25.1834C15.6079 25.2674 15.53 25.3893 15.4346 25.4933C15.2469 25.6957 14.9818 25.7827 14.7653 25.9397C14.6687 26.0102 14.5704 26.0808 14.4779 26.1579C14.3971 26.2252 14.3301 26.3108 14.2447 26.3661C14.1592 26.4214 14.016 26.425 13.9674 26.4966C13.8799 26.63 13.7349 26.5718 13.6386 26.6458C13.5672 26.6998 13.473 26.7364 13.424 26.8045C13.3468 26.9139 13.2833 26.8965 13.1737 26.8583C13.1117 26.8371 12.9932 26.9006 12.9382 26.9603C12.8186 27.0912 12.7169 27.2241 12.506 27.2018C12.447 27.1963 12.3603 27.2571 12.3189 27.3103C12.1897 27.4739 12.0533 27.3725 11.8971 27.3277C11.8475 27.4082 11.7961 27.4888 11.7588 27.5488C11.6129 27.5615 11.5001 27.5679 11.3897 27.5811C11.2988 27.5943 11.1584 27.5889 11.1275 27.6412C11.0445 27.7848 10.8735 27.814 10.8023 27.992C10.6321 28.416 10.3847 28.806 10.0996 29.171C9.98648 29.3155 9.88324 29.4716 9.8001 29.6347C9.71696 29.7978 9.49513 29.8332 9.46107 30.031C9.1186 30.2664 8.93387 30.6651 8.60515 30.8957C8.41156 31.0313 8.35615 31.3089 8.09022 31.3464C7.80338 31.7115 7.38783 31.9214 7.0356 32.2073C6.69987 32.4793 6.33867 32.7234 5.96003 32.9301C5.54411 33.156 5.12215 33.3736 4.69781 33.5843C4.25476 33.8037 3.78101 33.9355 3.34132 34.1528C3.17827 34.2326 2.99317 34.2222 2.81737 34.2978C2.53054 34.4203 2.19222 34.4198 1.86394 34.4733L1.71002 32.7139C1.71804 32.7044 1.73537 32.6799 1.73904 32.6813C1.76518 32.6967 1.79333 32.735 1.81235 32.7298C1.99429 32.6838 2.17577 32.6325 2.35693 32.5777C2.61741 32.4982 2.8599 32.3548 3.14519 32.3564C3.25141 32.3559 3.35412 32.3558 3.44233 32.2507C3.51772 32.1608 3.64919 32.0643 3.75557 32.0657C3.9078 32.0647 3.97538 31.9667 4.0802 31.9097C4.19671 31.8446 4.38295 31.8478 4.44397 31.7557C4.63342 31.4717 5.01473 31.5588 5.2188 31.3C5.39399 31.0757 5.73084 31.0392 5.90212 30.7904C6.14188 30.8385 6.19789 30.5272 6.41737 30.5257C6.45283 30.5262 6.5183 30.485 6.51967 30.4601C6.53336 30.1915 6.79445 30.119 6.94495 30.0173C7.29285 29.7832 7.48316 29.3875 7.85982 29.1987C7.83843 28.9137 8.16743 28.9292 8.26331 28.7295C8.35309 28.541 8.50394 28.3826 8.63262 28.2137C8.6485 28.1928 8.68732 28.1912 8.77466 28.157C8.6496 28.1042 8.56673 28.0477 8.47731 28.0378C8.36825 28.0261 8.25302 28.045 8.14306 28.0635C7.90923 28.1034 7.68405 28.0399 7.45517 28.0351C7.23522 28.0313 7.0282 28.0335 6.84288 27.8992C6.73883 27.8233 6.66736 28.0792 6.53483 27.9208C6.48138 27.8564 6.34031 27.8634 6.23927 27.8422C6.12195 27.817 6.00348 27.799 5.88807 27.7755C5.78703 27.7542 5.68553 27.7277 5.58288 27.7083C5.55224 27.7022 5.51526 27.7249 5.48767 27.7131C5.29497 27.6361 5.18771 27.4223 4.90726 27.4557C4.7302 27.4765 4.52293 27.314 4.33909 27.2168C4.11427 27.0965 3.93464 26.8855 3.64562 26.902C3.47291 26.9117 3.54348 26.686 3.3699 26.625C3.10138 26.5316 2.86726 26.3254 2.63851 26.1399C2.43078 25.9722 2.22053 25.7957 2.00907 25.646C1.65212 25.3921 1.41203 25.0164 1.01018 24.816C0.939962 24.4183 1.03727 24.0325 1.01942 23.6462C1.00525 23.3021 1.16234 22.9519 1.25376 22.5595C1.39905 22.7222 1.53333 22.8804 1.67563 23.0292C1.85884 23.2204 2.03869 23.4136 2.23809 23.5874C2.61204 23.9142 2.99898 24.2275 3.37774 24.5486C3.82738 24.9308 4.35025 25.1985 4.84051 25.5187C4.9363 25.5812 5.10427 25.4159 5.14886 25.6423C5.15921 25.6998 5.34921 25.7257 5.45836 25.7586C5.57117 25.793 5.6975 25.7997 5.79971 25.8545C6.0003 25.9609 6.21211 26.054 6.42832 26.0758C6.68542 26.0994 6.89582 26.2775 7.18192 26.2277C7.40696 26.1886 7.65272 26.3052 7.88521 26.3309C8.16608 26.363 8.45819 26.2808 8.74622 26.2733C8.92658 26.2699 9.10871 26.1654 9.2993 26.2993C9.35588 26.3386 9.5098 26.2153 9.62504 26.1964C9.71582 26.1814 9.8155 26.2276 9.90865 26.2194C9.99653 26.2117 10.0807 26.1618 10.1678 26.1454C10.7204 26.0439 11.2674 25.9199 11.7818 25.6854C11.9045 25.6304 12.0671 25.6268 12.1535 25.5413C12.2871 25.4091 12.4894 25.5349 12.6166 25.3484C12.7044 25.2186 12.9343 25.1949 13.0719 25.0872C13.2029 24.9854 13.3944 25.0077 13.499 24.8267C13.5452 24.7483 13.7594 24.7667 13.9179 24.7369C13.9235 24.6585 13.9298 24.5694 13.9366 24.4643L14.376 24.4259L14.3554 24.1903C14.6319 24.0103 14.8971 23.8436 15.1546 23.6688C15.2064 23.6342 15.2635 23.5778 15.2746 23.5219C15.3355 23.2474 15.6607 23.2597 15.7731 23.0462C15.9568 23.0815 15.9642 22.9019 16.0553 22.8302C16.3056 22.6347 16.4104 22.3139 16.6918 22.1493C16.7692 22.1036 16.8603 22.0106 16.8692 21.9301C16.8938 21.7261 17.0256 21.7145 17.1778 21.6516C17.2992 21.6021 17.181 21.3237 17.3605 21.2708C17.542 21.2195 17.4765 20.9968 17.6368 20.9473C17.7972 20.8978 17.8841 20.7769 17.9247 20.6139C17.9325 20.5814 17.9776 20.5509 18.013 20.5301C18.2614 20.3932 18.2614 20.3932 18.2947 20.1264C18.398 20.1121 18.5047 20.0974 18.5555 20.0912C18.6919 19.9092 18.7874 19.745 18.9162 19.6186C19.0664 19.4727 19.2516 19.3626 19.4097 19.2266C19.4624 19.1812 19.4925 19.1006 19.5183 19.0311C19.5689 18.9009 19.6484 18.8178 19.7949 18.8316C19.9055 18.8414 20.0062 18.7971 20.0245 18.7034C20.0676 18.4871 20.2 18.4012 20.3988 18.3661C20.4164 18.3645 20.42 18.2845 20.4353 18.2159L20.8149 18.1827C20.8499 18.1371 20.8798 18.115 20.883 18.0899C20.9181 17.8035 20.9153 17.7913 21.1509 17.7512C21.2556 17.7332 21.3255 17.7023 21.3855 17.6191C21.5514 17.3903 21.8103 17.3535 22.0563 17.27C22.2783 17.1957 22.5957 17.221 22.6426 16.8662C22.649 16.8179 22.7221 16.7424 22.7697 16.74C23.1775 16.7043 23.468 16.3814 23.8395 16.2957C24.1973 16.2148 24.5305 16.0759 24.8756 15.9713C25.2032 15.87 25.5339 15.7827 25.8813 15.7859C26.0191 15.641 26.1753 15.7053 26.3295 15.7467C26.4836 15.7881 26.6177 15.7622 26.7808 15.7232C27.2492 15.6113 27.7341 15.6468 28.2139 15.7271C28.568 15.7864 28.9353 15.7738 29.2556 15.9724C29.6883 15.8372 30.0253 16.2487 30.4465 16.1835C30.697 16.3546 31.005 16.3932 31.2683 16.5278C31.4166 16.6034 31.5639 16.6684 31.718 16.7293C31.9125 16.8062 32.1531 16.8028 32.2811 17.0112C32.5936 17.0406 32.8221 17.2632 33.0974 17.3737C33.2443 17.4335 33.3621 17.5242 33.4738 17.6472C33.7327 17.9345 33.746 17.9245 33.6442 18.2787C33.6335 18.3186 33.6175 18.3785 33.5901 18.3897C33.2205 18.5177 33.0709 18.8726 32.8156 19.1128C32.0904 18.9 31.4648 18.4499 30.7441 18.2084C30.182 18.0184 29.6287 17.8083 29.0708 17.6056C29.0561 17.5998 29.0452 17.576 29.0346 17.5769C28.6969 17.6029 28.3806 17.4906 28.0551 17.4341C27.8608 17.3997 27.6615 17.3888 27.465 17.3901C27.2738 17.3909 27.0775 17.4541 26.891 17.4279C26.6973 17.4006 26.5271 17.4385 26.3447 17.4793C26.1433 17.5252 25.9269 17.5016 25.7253 17.5458C25.4959 17.596 25.2914 17.7892 25.0334 17.6135C25.0051 17.5929 25.0561 17.7921 24.9037 17.8108C24.7408 17.8321 24.5709 17.8735 24.4269 17.9481C24.215 18.057 23.9522 18.0286 23.7746 18.2461C23.6931 18.347 23.512 18.4019 23.3694 18.4126C23.1742 18.4279 22.9962 18.4789 22.8715 18.612C22.7548 18.7355 22.688 18.5997 22.5839 18.6035L22.5811 18.6126Z" fill="black"/>
<mask id="mask1_1_8235" style="mask-type:luminance" maskUnits="userSpaceOnUse" x="22" y="34" width="14" height="12">
<path d="M34.8608 34.4219L22.125 35.5361L22.9563 45.0378L35.692 43.9236L34.8608 34.4219Z" fill="white"/>
</mask>
<g mask="url(#mask1_1_8235)">
<path d="M24.4215 44.0594C24.3774 43.8791 24.4143 43.6739 24.2043 43.5613C24.1747 43.5461 24.1518 43.4472 24.157 43.445C24.2992 43.3705 24.1261 43.2741 24.1762 43.1989C24.4217 42.8267 24.8134 42.6685 25.2573 42.7625C25.3151 42.7751 25.3752 42.7947 25.4334 42.7913C25.6486 42.7814 25.8544 42.7651 26.0754 42.822C26.2748 42.8736 26.5057 42.74 26.7123 42.8743C26.7234 42.8804 26.7441 42.8733 26.7597 42.8701C27.3059 42.7763 27.8586 42.9405 28.4045 42.8236C29.1939 42.6554 30.0133 42.6085 30.7532 42.2391C31.3989 42.1897 31.928 41.7591 32.5659 41.6821C32.6185 41.6757 32.6626 41.6134 32.7175 41.5926C32.947 41.5035 33.1793 41.5877 33.3261 41.8086C33.367 41.8705 33.3963 41.9424 33.4469 41.9946C33.5247 42.0746 33.6173 42.1409 33.7033 42.213C33.6198 42.3107 33.538 42.4082 33.4416 42.5211L33.4945 43.1257C33.2912 43.2108 33.1066 43.3279 32.9078 43.363C32.5748 43.424 32.3164 43.6893 31.9907 43.7107C31.6965 43.7293 31.4693 43.9051 31.1824 43.9461C30.8938 43.9873 30.6253 44.1578 30.3199 44.2093C30.1784 44.2323 30.0372 44.3792 29.8906 44.323C29.7367 44.2639 29.6875 44.4718 29.5205 44.405C29.4122 44.3613 29.2464 44.4697 29.1051 44.4944C28.9638 44.5192 28.8187 44.5213 28.6746 44.5339L28.1965 44.5757C28.0524 44.5883 27.9094 44.6132 27.7656 44.6099C27.6645 44.6081 27.5615 44.5445 27.4629 44.5513C27.3819 44.5566 27.2859 44.6731 27.2257 44.6536C26.8243 44.5187 26.4137 44.5422 26.0043 44.539C25.9156 44.5379 25.8209 44.4878 25.7394 44.5073C25.5172 44.5586 25.2993 44.5175 25.1022 44.4515C24.8632 44.3714 24.5582 44.3875 24.4232 44.0593L24.4215 44.0594Z" fill="black"/>
<path d="M25.6396 36.9737C25.6751 37.1973 25.514 37.3601 25.4841 37.5452C25.4521 37.7463 25.441 37.9226 25.2351 38.0186C25.0612 38.4199 24.6324 38.4574 24.311 38.6308C23.9085 38.8484 23.8841 38.8116 23.4968 38.5355C23.4476 38.4991 23.376 38.4292 23.3454 38.4443C23.0995 38.549 23.029 38.3303 22.9109 38.2148C22.7928 38.0994 22.5832 38.0522 22.599 37.8277C22.3513 37.6687 22.3785 37.3723 22.2841 37.1433C22.2237 36.9998 22.2798 36.7912 22.3272 36.6241C22.4493 36.1778 22.7541 35.8553 23.1087 35.5763C23.4041 35.593 23.6585 35.2413 23.9802 35.4771C24.1383 35.3818 24.317 35.6017 24.4715 35.4447C24.7179 35.5277 24.9557 35.6149 25.1325 35.8332C25.3073 36.0499 25.3792 36.3057 25.4806 36.5537C25.537 36.6922 25.5865 36.8331 25.6396 36.9737Z" fill="black"/>
<path d="M34.4879 35.1599C34.6393 35.3521 34.7606 35.5239 34.8411 35.7153C35.0962 36.3234 35.1681 36.9229 34.7362 37.492C34.719 37.7414 34.447 37.7085 34.3251 37.8538C34.2513 37.9417 34.08 37.9479 33.9511 37.9928C33.9048 38.0093 33.5953 38.0346 33.5522 38.0277C33.4192 38.0057 33.2849 37.9891 33.1517 37.9653C33.0491 37.946 32.9418 37.9341 32.8496 37.8926C32.7684 37.8554 32.7096 37.7702 32.6296 37.7259C32.5534 37.6847 32.4524 37.6847 32.3792 37.638C32.3023 37.588 32.3148 37.4275 32.161 37.4516C32.154 37.4522 32.1459 37.2988 32.1038 37.2423C31.8419 36.8809 31.8932 36.4956 32.0078 36.1048C32.0338 36.0175 32.2281 35.7083 32.2897 35.6427C32.4141 35.5061 32.5277 35.3668 32.6881 35.2572C32.8637 35.1391 33.0364 35.0886 33.2391 35.0567C33.5622 35.0054 33.6908 35.0171 34.0688 35.147C34.1948 35.1909 34.346 35.1582 34.488 35.1617L34.4879 35.1599Z" fill="black"/>
</g>
<mask id="mask2_1_8235" style="mask-type:luminance" maskUnits="userSpaceOnUse" x="3" y="50" width="58" height="22">
<path d="M58.5889 50.2311L3.8125 55.0234L5.26349 71.6084L60.0399 66.8161L58.5889 50.2311Z" fill="white"/>
</mask>
<g mask="url(#mask2_1_8235)">
<path d="M30.9729 53.7091C15.1753 54.5244 5.51804 61.0132 2.66406 64.1556L3.23301 70.6588L58.8618 65.7919L59.3276 57.9584C56.4583 56.2022 46.7704 52.8937 30.9729 53.7091Z" fill="#F23540"/>
<path d="M30.9318 54.5385C30.9414 54.6492 30.9153 54.7755 30.9662 54.8312C31.0582 54.9312 31.0751 54.9829 31.0011 55.108C30.953 55.1866 30.9632 55.3433 31.0113 55.4277C31.1866 55.7311 31.1435 56.0679 31.1823 56.3903C31.2282 56.7724 31.2459 57.157 31.2882 57.5394C31.3048 57.6885 31.259 57.8536 31.4114 57.9767C31.5371 58.0772 31.2122 58.1694 31.3838 58.3085C31.4907 58.3966 31.5048 58.5175 31.4017 58.6346C31.3857 58.6537 31.3775 58.7022 31.3897 58.7206C31.6227 59.0757 31.5207 59.4885 31.5791 59.873C31.6385 60.2681 31.6489 60.6709 31.6926 61.0692C31.7092 61.2182 31.6535 61.3914 31.8125 61.5085C31.8391 61.5292 31.8207 61.6017 31.8384 61.6426C31.9064 61.812 31.6639 61.9554 31.8347 62.1672C31.9442 62.3046 31.9098 62.5591 31.9346 62.7624C31.9567 62.9535 31.9682 63.1456 31.9849 63.3371L32.0393 63.9593C32.0561 64.1509 32.0729 64.3425 32.0896 64.5341C32.1379 65.1462 32.3346 65.7347 32.3533 66.3529C32.3724 66.9764 32.4551 67.5979 32.5097 68.2219C32.5138 68.2694 32.4999 68.3326 32.5255 68.3622C32.6736 68.537 32.6892 68.7145 32.5716 68.909C32.519 68.9968 32.7308 69.0084 32.6318 69.1322C32.5457 69.2407 32.4401 69.2286 32.3347 69.2379C31.8585 69.2813 31.3803 69.3214 30.853 69.3675C30.8774 69.2414 30.9009 69.1455 30.9156 69.0503C30.9244 68.9893 30.9507 68.9056 30.9211 68.871C30.7344 68.6393 30.8055 68.3586 30.7651 68.1C30.7361 67.9095 30.7838 67.6857 30.6979 67.5338C30.5931 67.3482 30.7182 67.1991 30.6819 67.0269C30.646 66.8601 30.5459 66.7076 30.541 66.5504C30.5315 66.2591 30.3876 65.9706 30.5379 65.6652C30.5801 65.58 30.442 65.4185 30.4252 65.2872C30.3807 64.9209 30.3662 64.552 30.32 64.1859C30.2945 63.9756 30.3605 63.7378 30.175 63.561C30.1576 63.5448 30.1548 63.4919 30.1668 63.4679C30.2996 63.2242 30.0882 63.0143 30.0978 62.7796C30.107 62.5415 30.063 62.3009 30.0421 62.0619L29.975 61.2956C29.9638 61.1673 29.9562 61.0404 29.9415 60.9124C29.9284 60.8038 29.9425 60.6608 29.8787 60.5991C29.7874 60.5079 29.947 60.3682 29.7941 60.3214C29.8082 60.1377 29.6927 59.9512 29.8203 59.7701C29.8391 59.7418 29.8336 59.6591 29.8113 59.6469C29.6879 59.5727 29.7473 59.4417 29.7021 59.35C29.6304 59.1987 29.8026 59.0614 29.6814 58.8914C29.6008 58.7797 29.6401 58.5815 29.6262 58.4215C29.6108 58.2458 29.5954 58.07 29.58 57.8943L29.5423 57.4636C29.5297 57.3195 29.5242 57.1748 29.5029 57.0332C29.4831 56.9074 29.3845 56.7531 29.4286 56.6695C29.5196 56.4951 29.429 56.4109 29.3498 56.2956C29.3336 56.2723 29.3782 56.2152 29.3832 56.1705C29.3948 56.0809 29.4333 55.9748 29.4004 55.9016C29.2258 55.5059 29.2608 55.0761 29.1929 54.664C28.9193 54.7145 28.6644 54.7563 28.4142 54.8119C28.1589 54.8696 27.8698 54.7638 27.6431 54.9661C27.5313 54.8023 27.4093 54.9866 27.3094 54.9581C27.1751 54.9203 27.1141 55.0531 26.9905 55.0374C26.8508 55.0195 26.7032 55.0536 26.5594 55.0698C26.4225 55.0835 26.2717 55.0613 26.1758 55.199C25.9804 55.0513 25.8172 55.1896 25.63 55.2361C25.2226 55.3373 24.8011 55.3777 24.3881 55.4545C24.273 55.4752 24.1194 55.602 24.0612 55.5646C23.9052 55.4614 23.8187 55.6071 23.7005 55.6121C23.5805 55.6173 23.445 55.5866 23.3561 55.7237C23.3342 55.7575 23.2363 55.7519 23.174 55.7485C23.0939 55.7431 23.0065 55.6959 22.9355 55.7145C22.8541 55.7358 22.7882 55.8124 22.713 55.8632C22.6896 55.8794 22.6473 55.9026 22.6304 55.8917C22.3513 55.7372 22.1068 55.9588 21.849 55.9884C21.6176 56.0157 21.3606 56.1144 21.1223 56.2043C20.793 56.327 20.4235 56.3345 20.0742 56.4111C19.6434 56.5072 19.2111 56.6071 18.7902 56.736C18.485 56.83 18.1843 56.936 17.8696 56.983C17.6721 57.0127 17.4765 57.0245 17.2928 57.1309C16.9946 57.3057 16.6191 57.2642 16.3286 57.426C16.1073 57.5481 15.8599 57.5148 15.6416 57.6508C15.4586 57.766 15.2048 57.7793 14.9793 57.8132C14.8727 57.8296 14.8034 57.8676 14.7467 57.9487C14.7278 57.9752 14.6893 58.021 14.6874 58.0194C14.3539 57.7705 14.2193 58.257 13.9067 58.2259C13.6457 58.1991 13.4021 58.4914 13.0953 58.4669C12.6965 58.7054 12.2397 58.8092 11.8188 58.9983C11.4387 59.1679 11.0415 59.3036 10.6525 59.4528C10.6096 59.4689 10.5601 59.4697 10.5231 59.4924C10.4559 59.5337 10.3482 59.6388 10.3366 59.6274C10.2272 59.5307 10.2189 59.6997 10.1576 59.6874C10.0062 59.6563 10.0304 59.9128 9.83825 59.8623C9.75303 59.8397 9.62892 59.9798 9.51661 60.0321C9.39581 60.0887 9.26423 60.1233 9.14359 60.1817C9.02471 60.2399 8.91471 60.3186 8.79835 60.3854C8.68375 60.4521 8.56803 60.5667 8.44966 60.57C8.19533 60.5781 8.04962 60.775 7.8447 60.862C7.64139 60.9471 7.46057 61.0869 7.26629 61.1942C7.17507 61.2447 7.07719 61.2799 6.97946 61.3168C6.9366 61.3329 6.87293 61.3137 6.84153 61.3394C6.70297 61.4561 6.65043 61.6856 6.40533 61.6574C6.3069 61.8077 6.10493 61.8272 6.0025 61.9318C5.7021 62.2432 5.29905 62.3936 4.95218 62.7002C4.6501 62.1422 4.45822 61.5887 4.33594 61.0008C4.67659 60.785 4.92925 60.5149 5.3054 60.3811C5.59904 60.2757 5.84177 60.0136 6.1184 59.8353C6.50741 59.5852 6.9183 59.3828 7.32238 59.1632C7.71301 58.9519 8.13003 58.7791 8.5092 58.5582C8.96247 58.2936 9.46135 58.1455 9.92159 57.8997C10.3613 57.6629 10.8389 57.4741 11.3087 57.2967C11.8384 57.0962 12.3514 56.8264 12.8921 56.6906C13.3947 56.5651 13.8362 56.2661 14.3626 56.2307C14.5423 56.0786 14.781 56.0737 14.9881 55.9918C15.2945 55.8694 15.6225 55.7928 15.9427 55.7081C16.3253 55.6074 16.7132 55.5061 17.0837 55.3887C17.4508 55.2733 17.8372 55.1953 18.199 55.0396C18.4294 54.9398 18.7081 54.9668 18.9638 54.8736C19.3326 54.7368 19.7362 54.7139 20.1122 54.5783C20.3989 54.4752 20.7161 54.4564 21.0185 54.3909C21.1958 54.3524 21.3693 54.2912 21.5464 54.2509C21.7236 54.2106 21.9294 54.2758 22.076 54.1089C22.0904 54.0917 22.1375 54.1035 22.169 54.099C22.5529 54.0335 22.9472 54.0061 23.3144 53.8908C23.6797 53.7756 24.0789 53.8239 24.4105 53.6868C24.7456 53.5495 25.1213 53.653 25.4316 53.4345C25.5216 53.37 25.683 53.4126 25.8086 53.3909C26.1297 53.3363 26.4751 53.4176 26.767 53.2115C26.8971 53.1204 27.0246 53.3023 27.1783 53.1967C27.2819 53.1257 27.4569 53.1617 27.5964 53.1371C27.7446 53.11 27.9124 53.1661 28.0374 53.0153C28.0743 52.9713 28.1947 52.9714 28.267 52.9881C28.4731 53.0356 28.6621 52.9695 28.8598 52.9416C29.4303 52.8633 30.0316 52.9134 30.5758 52.7578C31.1219 52.602 31.6691 52.6214 32.2116 52.5474C32.7821 52.4691 33.3599 52.4327 33.9358 52.3965C34.163 52.382 34.41 52.4719 34.6191 52.4129C34.8422 52.3509 35.0498 52.416 35.2641 52.376C35.4837 52.3355 35.7101 52.3316 35.9333 52.3121C36.1724 52.2912 36.4243 52.2142 36.6497 52.2618C37.1134 52.3594 37.5576 52.232 38.0107 52.2295C38.2232 52.2287 38.438 52.2541 38.6498 52.2675C38.8636 52.2824 39.0854 52.1444 39.2907 52.3053C39.3097 52.3196 39.3522 52.2999 39.384 52.2989C39.8368 52.2912 40.289 52.2782 40.7425 52.2792C40.8913 52.2804 41.0398 52.317 41.1899 52.3322C41.3238 52.3452 41.4682 52.2529 41.5965 52.3851C41.624 52.4146 41.723 52.3936 41.7815 52.3743C42.0329 52.2921 42.2676 52.4433 42.5182 52.4126C42.7617 52.3824 42.9939 52.4666 43.2302 52.515C43.3493 52.54 43.4805 52.5019 43.6053 52.5105C43.723 52.5197 43.8402 52.5643 43.9578 52.5717C44.3335 52.5955 44.7066 52.6284 45.0732 52.7292C45.2746 52.7842 45.494 52.7827 45.7007 52.7965C46.1692 52.8281 46.6271 52.9191 47.0785 53.0178C47.2157 53.0483 47.3482 53.0225 47.4827 53.0621C47.7388 53.1353 47.9986 53.21 48.2608 53.2526C48.5287 53.2982 48.7936 53.33 49.0281 53.4795C49.7752 53.4761 50.4227 53.9136 51.1555 53.9699C51.4779 54.2127 51.8895 54.1997 52.2478 54.349C52.6981 54.5363 53.185 54.6354 53.6353 54.8227C54.1298 55.0291 54.649 55.1732 55.1282 55.4076C55.7738 55.723 56.4443 55.9778 57.0873 56.3024C57.6488 56.5862 58.2043 56.883 58.7659 57.1686C58.9178 57.2456 59.0502 57.3615 59.2218 57.4811C59.0934 58.0786 58.965 58.6743 58.8298 59.2954C58.654 59.1691 58.5041 58.9732 58.3382 58.9594C58.0738 58.9347 57.9618 58.7071 57.7376 58.6347C57.5481 58.5733 57.4013 58.3736 57.1717 58.3601C56.6398 57.9497 56.0129 57.707 55.4103 57.4391C55.1487 57.3239 54.8908 57.1693 54.5755 57.1278C54.2943 57.0922 54.0335 56.8848 53.768 56.7451C53.6213 56.6676 53.4731 56.6133 53.3099 56.5691C53.1287 56.523 52.8992 56.5519 52.7723 56.3558C52.4397 56.2786 52.1261 56.136 51.798 56.0496C51.5769 55.991 51.3829 55.8805 51.1721 55.8192C50.9724 55.7623 50.7669 55.7431 50.5645 55.6758C50.2545 55.5736 49.9492 55.425 49.6368 55.3762C49.3082 55.3252 48.9974 55.2338 48.6773 55.159C48.1278 55.0318 47.5667 54.9551 47.0365 54.7447C46.8548 54.672 46.655 54.7568 46.4503 54.6844C46.1307 54.5742 45.7735 54.6409 45.4395 54.4877C45.2532 54.403 44.9935 54.5108 44.7573 54.4429C44.5573 54.3842 44.2959 54.4726 44.1299 54.3773C43.9172 54.2543 43.7138 54.3783 43.5002 54.2854C43.2774 54.188 42.9882 54.2417 42.7299 54.2253C42.5481 54.2129 42.3652 54.1669 42.1861 54.1843C42.0051 54.2002 41.849 54.1572 41.7057 54.0776C41.6184 54.0303 41.6121 54.1017 41.567 54.1128C41.463 54.1378 41.3482 54.162 41.2471 54.1407C40.9494 54.0782 40.6502 54.0389 40.3446 54.0461C40.2174 54.0502 40.0738 53.9884 39.9675 54.0295C39.8442 54.0775 39.7584 54.1275 39.632 54.0394C39.5187 53.959 39.348 54.1138 39.236 53.9678C39.1409 54.116 38.9937 53.9111 38.9468 53.9825C38.8469 54.1364 38.7668 53.9894 38.6826 53.9985C38.1508 54.0539 37.6162 53.9359 37.0832 54.0375C36.9594 54.0607 36.7571 53.9544 36.7053 54.0103C36.5679 54.1605 36.4451 53.9711 36.3871 54.0169C36.2314 54.1403 36.0638 53.9655 35.9391 54.0579C35.7695 54.1843 35.6079 54.0178 35.4328 54.0809C35.2714 54.1393 35.0838 54.1203 34.9098 54.1355C34.7358 54.1508 34.5584 54.168 34.3825 54.1817C34.2575 54.1908 34.0602 54.2435 34.0199 54.1868C33.9149 54.0401 33.8303 54.3274 33.7635 54.1721C33.7589 54.1601 33.7404 54.151 33.7274 54.1433C33.5611 54.0445 33.482 54.3756 33.2628 54.2176C33.1531 54.1387 32.9104 54.1776 32.7581 54.2388C32.5973 54.3042 32.4635 54.3336 32.3054 54.2677C32.1729 54.2103 32.1173 54.5056 31.9377 54.3353C31.8353 54.238 31.7082 54.3235 31.6158 54.4219C31.5996 54.4393 31.5533 54.4363 31.5227 54.4301C31.4238 54.4139 31.3207 54.3681 31.2264 54.3834C31.1284 54.3973 31.039 54.4689 30.9219 54.5269L30.9318 54.5385Z" fill="black"/>
</g>
</g>
<path d="M39.0388 12.2686L14.2563 14.4368C6.49063 15.1162 0.746081 21.9623 1.42549 29.728L3.59368 54.5105C4.27309 62.2762 11.1192 68.0207 18.8848 67.3413L43.6674 65.1731C51.4331 64.4937 57.1776 57.6476 56.4982 49.882L54.33 25.0994C53.6506 17.3338 46.8045 11.5892 39.0388 12.2686Z" stroke="black" stroke-width="1.76434"/>
</g>
<defs>
<clipPath id="clip0_1_8235">
<rect width="58" height="58" fill="white" transform="translate(0.148438 10.9922)"/>
</clipPath>
</defs>
</svg>
