<svg width="22" height="22" viewBox="0 0 22 22" fill="none" xmlns="http://www.w3.org/2000/svg">
<g id="image" clip-path="url(#clip0_209_1824)">
<path id="Vector" d="M10.999 22C15.82 22 18.499 22 20.249 20.25C22 18.5 22 15.82 22 11C22 6.18 22 3.501 20.249 1.751C18.499 0 15.82 0 10.999 0C6.179 0 3.5 0 1.749 1.751C0 3.5 0 6.181 0 11C0 15.82 0 18.5 1.749 20.25C3.5 21.999 6.179 22 10.999 22Z" fill="black"/>
<path id="Vector_2" d="M5.41091 9.57405L12.0509 9.58705L12.4269 7.95305L18.0869 7.93405L17.4219 9.56105L12.0559 9.58705L11.6849 11.221L5.40991 11.209L5.41091 9.57405ZM5.41091 6.30005L11.4599 6.31305C12.1439 6.31305 12.6459 6.97405 12.4889 7.66205L12.4259 7.94705L5.40991 7.93505L5.41091 6.30005ZM11.6769 11.221L15.6489 11.228L15.0659 12.862L11.3079 12.855L10.9389 14.487L5.40991 14.475V12.841L11.3079 12.853L11.6769 11.221ZM13.2949 16.128H12.1469C11.3189 16.128 10.7159 15.311 10.9299 14.487H13.9289L13.2949 16.128Z" fill="white"/>
</g>
<defs>
<clipPath id="clip0_209_1824">
<rect width="22" height="22" fill="white"/>
</clipPath>
</defs>
</svg>
